<?xml version="1.0" encoding="utf-8" standalone="no"?>
<!DOCTYPE svg PUBLIC "-//W3C//DTD SVG 1.1//EN"
  "http://www.w3.org/Graphics/SVG/1.1/DTD/svg11.dtd">
<!-- Created with matplotlib (http://matplotlib.org/) -->
<svg height="540pt" version="1.1" viewBox="0 0 1440 540" width="1440pt" xmlns="http://www.w3.org/2000/svg" xmlns:xlink="http://www.w3.org/1999/xlink">
 <defs>
  <style type="text/css">
*{stroke-linecap:butt;stroke-linejoin:round;stroke-miterlimit:100000;}
  </style>
 </defs>
 <g id="figure_1">
  <g id="patch_1">
   <path d="M 0 540 
L 1440 540 
L 1440 0 
L 0 0 
z
" style="fill:#ffffff;"/>
  </g>
  <g id="axes_1">
   <g id="patch_2">
    <path d="M 180 486 
L 1296 486 
L 1296 54 
L 180 54 
z
" style="fill:#ffffff;"/>
   </g>
   <g id="PathCollection_1">
    <path clip-path="url(#p55745b0038)" d="M 676 409.19767 
L 683.071068 402.126602 
L 676 395.055535 
L 668.928932 402.126602 
L 676 409.19767 
z
" style="fill:none;stroke:#00ffff;"/>
   </g>
   <g id="PathCollection_2">
    <defs>
     <path d="M -0 5 
L 5 0 
L 0 -5 
L -5 -0 
z
" id="mc5a5c9add4" style="stroke:#ff0000;"/>
    </defs>
    <g clip-path="url(#p55745b0038)">
     <use style="fill:#ff0000;stroke:#ff0000;" x="676.0" xlink:href="#mc5a5c9add4" y="147.812543104"/>
    </g>
   </g>
   <g id="PathCollection_3">
    <path clip-path="url(#p55745b0038)" d="M 676 108.515956 
L 671.012618 112.139501 
L 672.917628 118.002521 
L 679.082372 118.002521 
L 680.987382 112.139501 
L 676 108.515956 
z
" style="fill:none;stroke:#008000;"/>
   </g>
   <g id="PathCollection_4">
    <path clip-path="url(#p55745b0038)" d="M 552 324.307687 
L 559.071068 317.236619 
L 552 310.165551 
L 544.928932 317.236619 
L 552 324.307687 
z
" style="fill:none;stroke:#00ffff;"/>
   </g>
   <g id="PathCollection_5">
    <g clip-path="url(#p55745b0038)">
     <use style="fill:#ff0000;stroke:#ff0000;" x="552.0" xlink:href="#mc5a5c9add4" y="200.519630004"/>
    </g>
   </g>
   <g id="PathCollection_6">
    <path clip-path="url(#p55745b0038)" d="M 552 133.355956 
L 547.012618 136.979501 
L 548.917628 142.842521 
L 555.082372 142.842521 
L 556.987382 136.979501 
L 552 133.355956 
z
" style="fill:none;stroke:#008000;"/>
   </g>
   <g id="PathCollection_7">
    <path clip-path="url(#p55745b0038)" d="M 924 217.860886 
L 931.071068 210.789819 
L 924 203.718751 
L 916.928932 210.789819 
L 924 217.860886 
z
" style="fill:none;stroke:#00ffff;"/>
   </g>
   <g id="PathCollection_8">
    <g clip-path="url(#p55745b0038)">
     <use style="fill:#ff0000;stroke:#ff0000;" x="924.0" xlink:href="#mc5a5c9add4" y="226.317151303"/>
    </g>
   </g>
   <g id="PathCollection_9">
    <path clip-path="url(#p55745b0038)" d="M 924 108.371956 
L 919.012618 111.995501 
L 920.917628 117.858521 
L 927.082372 117.858521 
L 928.987382 111.995501 
L 924 108.371956 
z
" style="fill:none;stroke:#008000;"/>
   </g>
   <g id="PathCollection_10">
    <path clip-path="url(#p55745b0038)" d="M 304 214.372842 
L 311.071068 207.301774 
L 304 200.230706 
L 296.928932 207.301774 
L 304 214.372842 
z
" style="fill:none;stroke:#00ffff;"/>
   </g>
   <g id="PathCollection_11">
    <g clip-path="url(#p55745b0038)">
     <use style="fill:#ff0000;stroke:#ff0000;" x="304.0" xlink:href="#mc5a5c9add4" y="194.913268437"/>
    </g>
   </g>
   <g id="PathCollection_12">
    <path clip-path="url(#p55745b0038)" d="M 304 113.627956 
L 299.012618 117.251501 
L 300.917628 123.114521 
L 307.082372 123.114521 
L 308.987382 117.251501 
L 304 113.627956 
z
" style="fill:none;stroke:#008000;"/>
   </g>
   <g id="PathCollection_13">
    <path clip-path="url(#p55745b0038)" d="M -378 277.236285 
" style="fill:none;stroke:#00ffff;"/>
   </g>
   <g id="PathCollection_14">
    <g clip-path="url(#p55745b0038)">
     <use style="fill:#ff0000;stroke:#ff0000;" x="-378.0" xlink:href="#mc5a5c9add4" y="173.372646363"/>
    </g>
   </g>
   <g id="PathCollection_15">
    <path clip-path="url(#p55745b0038)" d="M -378 137.747956 
" style="fill:none;stroke:#008000;"/>
   </g>
   <g id="PathCollection_16">
    <path clip-path="url(#p55745b0038)" d="M 1172 256.385788 
L 1179.071068 249.31472 
L 1172 242.243653 
L 1164.928932 249.31472 
L 1172 256.385788 
z
" style="fill:none;stroke:#00ffff;"/>
   </g>
   <g id="PathCollection_17">
    <g clip-path="url(#p55745b0038)">
     <use style="fill:#ff0000;stroke:#ff0000;" x="1172.0" xlink:href="#mc5a5c9add4" y="171.049611756"/>
    </g>
   </g>
   <g id="PathCollection_18">
    <path clip-path="url(#p55745b0038)" d="M 1172 99.299956 
L 1167.012618 102.923501 
L 1168.917628 108.786521 
L 1175.082372 108.786521 
L 1176.987382 102.923501 
L 1172 99.299956 
z
" style="fill:none;stroke:#008000;"/>
   </g>
   <g id="PathCollection_19">
    <path clip-path="url(#p55745b0038)" d="M 787.6 231.827244 
L 794.671068 224.756176 
L 787.6 217.685108 
L 780.528932 224.756176 
L 787.6 231.827244 
z
" style="fill:none;stroke:#00ffff;"/>
   </g>
   <g id="PathCollection_20">
    <g clip-path="url(#p55745b0038)">
     <use style="fill:#ff0000;stroke:#ff0000;" x="787.6" xlink:href="#mc5a5c9add4" y="221.224546017"/>
    </g>
   </g>
   <g id="PathCollection_21">
    <path clip-path="url(#p55745b0038)" d="M 787.6 213.203956 
L 782.612618 216.827501 
L 784.517628 222.690521 
L 790.682372 222.690521 
L 792.587382 216.827501 
L 787.6 213.203956 
z
" style="fill:none;stroke:#008000;"/>
   </g>
   <g id="PathCollection_22">
    <path clip-path="url(#p55745b0038)" d="M 800 380.024554 
L 807.071068 372.953487 
L 800 365.882419 
L 792.928932 372.953487 
L 800 380.024554 
z
" style="fill:none;stroke:#00ffff;"/>
   </g>
   <g id="PathCollection_23">
    <g clip-path="url(#p55745b0038)">
     <use style="fill:#ff0000;stroke:#ff0000;" x="800.0" xlink:href="#mc5a5c9add4" y="179.715799107"/>
    </g>
   </g>
   <g id="PathCollection_24">
    <path clip-path="url(#p55745b0038)" d="M 800 92.747956 
L 795.012618 96.371501 
L 796.917628 102.234521 
L 803.082372 102.234521 
L 804.987382 96.371501 
L 800 92.747956 
z
" style="fill:none;stroke:#008000;"/>
   </g>
   <g id="PathCollection_25">
    <path clip-path="url(#p55745b0038)" d="M 986 288.785307 
L 993.071068 281.714239 
L 986 274.643171 
L 978.928932 281.714239 
L 986 288.785307 
z
" style="fill:none;stroke:#00ffff;"/>
   </g>
   <g id="PathCollection_26">
    <g clip-path="url(#p55745b0038)">
     <use style="fill:#ff0000;stroke:#ff0000;" x="986.0" xlink:href="#mc5a5c9add4" y="237.531047055"/>
    </g>
   </g>
   <g id="PathCollection_27">
    <path clip-path="url(#p55745b0038)" d="M 986 109.163956 
L 981.012618 112.787501 
L 982.917628 118.650521 
L 989.082372 118.650521 
L 990.987382 112.787501 
L 986 109.163956 
z
" style="fill:none;stroke:#008000;"/>
   </g>
   <g id="PathCollection_28">
    <path clip-path="url(#p55745b0038)" d="M 1035.6 205.271125 
L 1042.671068 198.200057 
L 1035.6 191.12899 
L 1028.528932 198.200057 
L 1035.6 205.271125 
z
" style="fill:none;stroke:#00ffff;"/>
   </g>
   <g id="PathCollection_29">
    <g clip-path="url(#p55745b0038)">
     <use style="fill:#ff0000;stroke:#ff0000;" x="1035.6" xlink:href="#mc5a5c9add4" y="108.26100392"/>
    </g>
   </g>
   <g id="PathCollection_30">
    <path clip-path="url(#p55745b0038)" d="M 1035.6 101.963956 
L 1030.612618 105.587501 
L 1032.517628 111.450521 
L 1038.682372 111.450521 
L 1040.587382 105.587501 
L 1035.6 101.963956 
z
" style="fill:none;stroke:#008000;"/>
   </g>
   <g id="PathCollection_31">
    <path clip-path="url(#p55745b0038)" d="M 738 247.801894 
L 745.071068 240.730826 
L 738 233.659758 
L 730.928932 240.730826 
L 738 247.801894 
z
" style="fill:none;stroke:#00ffff;"/>
   </g>
   <g id="PathCollection_32">
    <g clip-path="url(#p55745b0038)">
     <use style="fill:#ff0000;stroke:#ff0000;" x="738.0" xlink:href="#mc5a5c9add4" y="287.23297848"/>
    </g>
   </g>
   <g id="PathCollection_33">
    <path clip-path="url(#p55745b0038)" d="M 738 160.283956 
L 733.012618 163.907501 
L 734.917628 169.770521 
L 741.082372 169.770521 
L 742.987382 163.907501 
L 738 160.283956 
z
" style="fill:none;stroke:#008000;"/>
   </g>
   <g id="PathCollection_34">
    <path clip-path="url(#p55745b0038)" d="M 1048 365.650948 
L 1055.071068 358.579881 
L 1048 351.508813 
L 1040.928932 358.579881 
L 1048 365.650948 
z
" style="fill:none;stroke:#00ffff;"/>
   </g>
   <g id="PathCollection_35">
    <g clip-path="url(#p55745b0038)">
     <use style="fill:#ff0000;stroke:#ff0000;" x="1048.0" xlink:href="#mc5a5c9add4" y="378.580950266"/>
    </g>
   </g>
   <g id="PathCollection_36">
    <path clip-path="url(#p55745b0038)" d="M 1048 104.267956 
L 1043.012618 107.891501 
L 1044.917628 113.754521 
L 1051.082372 113.754521 
L 1052.987382 107.891501 
L 1048 104.267956 
z
" style="fill:none;stroke:#008000;"/>
   </g>
   <g id="PathCollection_37">
    <path clip-path="url(#p55745b0038)" d="M 1048 365.650948 
L 1055.071068 358.579881 
L 1048 351.508813 
L 1040.928932 358.579881 
L 1048 365.650948 
z
" style="fill:none;stroke:#00ffff;"/>
   </g>
   <g id="PathCollection_38">
    <g clip-path="url(#p55745b0038)">
     <use style="fill:#ff0000;stroke:#ff0000;" x="1048.0" xlink:href="#mc5a5c9add4" y="378.580950266"/>
    </g>
   </g>
   <g id="PathCollection_39">
    <path clip-path="url(#p55745b0038)" d="M 1048 104.267956 
L 1043.012618 107.891501 
L 1044.917628 113.754521 
L 1051.082372 113.754521 
L 1052.987382 107.891501 
L 1048 104.267956 
z
" style="fill:none;stroke:#008000;"/>
   </g>
   <g id="line2d_1">
    <path clip-path="url(#p55745b0038)" d="M 676 402.126602 
L 676 147.812543 
" style="fill:none;stroke:#000000;stroke-dasharray:1.000000,3.000000;stroke-dashoffset:0.0;"/>
   </g>
   <g id="line2d_2">
    <path clip-path="url(#p55745b0038)" d="M 676 402.126602 
L 676 113.76 
" style="fill:none;stroke:#000000;stroke-dasharray:1.000000,3.000000;stroke-dashoffset:0.0;"/>
   </g>
   <g id="line2d_3">
    <path clip-path="url(#p55745b0038)" d="M 552 317.236619 
L 552 200.51963 
" style="fill:none;stroke:#000000;stroke-dasharray:1.000000,3.000000;stroke-dashoffset:0.0;"/>
   </g>
   <g id="line2d_4">
    <path clip-path="url(#p55745b0038)" d="M 552 317.236619 
L 552 138.6 
" style="fill:none;stroke:#000000;stroke-dasharray:1.000000,3.000000;stroke-dashoffset:0.0;"/>
   </g>
   <g id="line2d_5">
    <path clip-path="url(#p55745b0038)" d="M 924 210.789819 
L 924 226.317151 
" style="fill:none;stroke:#000000;stroke-dasharray:1.000000,3.000000;stroke-dashoffset:0.0;"/>
   </g>
   <g id="line2d_6">
    <path clip-path="url(#p55745b0038)" d="M 924 210.789819 
L 924 113.616 
" style="fill:none;stroke:#000000;stroke-dasharray:1.000000,3.000000;stroke-dashoffset:0.0;"/>
   </g>
   <g id="line2d_7">
    <path clip-path="url(#p55745b0038)" d="M 304 207.301774 
L 304 194.913268 
" style="fill:none;stroke:#000000;stroke-dasharray:1.000000,3.000000;stroke-dashoffset:0.0;"/>
   </g>
   <g id="line2d_8">
    <path clip-path="url(#p55745b0038)" d="M 304 207.301774 
L 304 118.872 
" style="fill:none;stroke:#000000;stroke-dasharray:1.000000,3.000000;stroke-dashoffset:0.0;"/>
   </g>
   <g id="line2d_9">
    <path clip-path="url(#p55745b0038)" d="M -378 270.165218 
" style="fill:none;stroke:#000000;stroke-dasharray:1.000000,3.000000;stroke-dashoffset:0.0;"/>
   </g>
   <g id="line2d_10">
    <path clip-path="url(#p55745b0038)" d="M -378 270.165218 
" style="fill:none;stroke:#000000;stroke-dasharray:1.000000,3.000000;stroke-dashoffset:0.0;"/>
   </g>
   <g id="line2d_11">
    <path clip-path="url(#p55745b0038)" d="M 1172 249.31472 
L 1172 171.049612 
" style="fill:none;stroke:#000000;stroke-dasharray:1.000000,3.000000;stroke-dashoffset:0.0;"/>
   </g>
   <g id="line2d_12">
    <path clip-path="url(#p55745b0038)" d="M 1172 249.31472 
L 1172 104.544 
" style="fill:none;stroke:#000000;stroke-dasharray:1.000000,3.000000;stroke-dashoffset:0.0;"/>
   </g>
   <g id="line2d_13">
    <path clip-path="url(#p55745b0038)" d="M 787.6 224.756176 
L 787.6 221.224546 
" style="fill:none;stroke:#000000;stroke-dasharray:1.000000,3.000000;stroke-dashoffset:0.0;"/>
   </g>
   <g id="line2d_14">
    <path clip-path="url(#p55745b0038)" d="M 787.6 224.756176 
L 787.6 218.448 
" style="fill:none;stroke:#000000;stroke-dasharray:1.000000,3.000000;stroke-dashoffset:0.0;"/>
   </g>
   <g id="line2d_15">
    <path clip-path="url(#p55745b0038)" d="M 800 372.953487 
L 800 179.715799 
" style="fill:none;stroke:#000000;stroke-dasharray:1.000000,3.000000;stroke-dashoffset:0.0;"/>
   </g>
   <g id="line2d_16">
    <path clip-path="url(#p55745b0038)" d="M 800 372.953487 
L 800 97.992 
" style="fill:none;stroke:#000000;stroke-dasharray:1.000000,3.000000;stroke-dashoffset:0.0;"/>
   </g>
   <g id="line2d_17">
    <path clip-path="url(#p55745b0038)" d="M 986 281.714239 
L 986 237.531047 
" style="fill:none;stroke:#000000;stroke-dasharray:1.000000,3.000000;stroke-dashoffset:0.0;"/>
   </g>
   <g id="line2d_18">
    <path clip-path="url(#p55745b0038)" d="M 986 281.714239 
L 986 114.408 
" style="fill:none;stroke:#000000;stroke-dasharray:1.000000,3.000000;stroke-dashoffset:0.0;"/>
   </g>
   <g id="line2d_19">
    <path clip-path="url(#p55745b0038)" d="M 1035.6 198.200057 
L 1035.6 108.261004 
" style="fill:none;stroke:#000000;stroke-dasharray:1.000000,3.000000;stroke-dashoffset:0.0;"/>
   </g>
   <g id="line2d_20">
    <path clip-path="url(#p55745b0038)" d="M 1035.6 198.200057 
L 1035.6 107.208 
" style="fill:none;stroke:#000000;stroke-dasharray:1.000000,3.000000;stroke-dashoffset:0.0;"/>
   </g>
   <g id="line2d_21">
    <path clip-path="url(#p55745b0038)" d="M 738 240.730826 
L 738 287.232978 
" style="fill:none;stroke:#000000;stroke-dasharray:1.000000,3.000000;stroke-dashoffset:0.0;"/>
   </g>
   <g id="line2d_22">
    <path clip-path="url(#p55745b0038)" d="M 738 240.730826 
L 738 165.528 
" style="fill:none;stroke:#000000;stroke-dasharray:1.000000,3.000000;stroke-dashoffset:0.0;"/>
   </g>
   <g id="line2d_23">
    <path clip-path="url(#p55745b0038)" d="M 1048 358.579881 
L 1048 378.58095 
" style="fill:none;stroke:#000000;stroke-dasharray:1.000000,3.000000;stroke-dashoffset:0.0;"/>
   </g>
   <g id="line2d_24">
    <path clip-path="url(#p55745b0038)" d="M 1048 358.579881 
L 1048 109.512 
" style="fill:none;stroke:#000000;stroke-dasharray:1.000000,3.000000;stroke-dashoffset:0.0;"/>
   </g>
   <g id="patch_3">
    <path d="M 180 54 
L 1296 54 
" style="fill:none;stroke:#000000;stroke-linecap:square;stroke-linejoin:miter;"/>
   </g>
   <g id="patch_4">
    <path d="M 1296 486 
L 1296 54 
" style="fill:none;stroke:#000000;stroke-linecap:square;stroke-linejoin:miter;"/>
   </g>
   <g id="patch_5">
    <path d="M 180 486 
L 1296 486 
" style="fill:none;stroke:#000000;stroke-linecap:square;stroke-linejoin:miter;"/>
   </g>
   <g id="patch_6">
    <path d="M 180 486 
L 180 54 
" style="fill:none;stroke:#000000;stroke-linecap:square;stroke-linejoin:miter;"/>
   </g>
   <g id="matplotlib.axis_1">
    <g id="xtick_1">
     <g id="line2d_25">
      <defs>
       <path d="M 0 0 
L 0 -4 
" id="m5716efce97" style="stroke:#000000;stroke-width:0.5;"/>
      </defs>
      <g>
       <use style="stroke:#000000;stroke-width:0.5;" x="180.0" xlink:href="#m5716efce97" y="486.0"/>
      </g>
     </g>
     <g id="line2d_26">
      <defs>
       <path d="M 0 0 
L 0 4 
" id="m6399ec3417" style="stroke:#000000;stroke-width:0.5;"/>
      </defs>
      <g>
       <use style="stroke:#000000;stroke-width:0.5;" x="180.0" xlink:href="#m6399ec3417" y="54.0"/>
      </g>
     </g>
     <g id="text_1">
      <!-- 78 -->
      <defs>
       <path d="M 31.78125 34.625 
Q 24.75 34.625 20.71875 30.859375 
Q 16.703125 27.09375 16.703125 20.515625 
Q 16.703125 13.921875 20.71875 10.15625 
Q 24.75 6.390625 31.78125 6.390625 
Q 38.8125 6.390625 42.859375 10.171875 
Q 46.921875 13.96875 46.921875 20.515625 
Q 46.921875 27.09375 42.890625 30.859375 
Q 38.875 34.625 31.78125 34.625 
M 21.921875 38.8125 
Q 15.578125 40.375 12.03125 44.71875 
Q 8.5 49.078125 8.5 55.328125 
Q 8.5 64.0625 14.71875 69.140625 
Q 20.953125 74.21875 31.78125 74.21875 
Q 42.671875 74.21875 48.875 69.140625 
Q 55.078125 64.0625 55.078125 55.328125 
Q 55.078125 49.078125 51.53125 44.71875 
Q 48 40.375 41.703125 38.8125 
Q 48.828125 37.15625 52.796875 32.3125 
Q 56.78125 27.484375 56.78125 20.515625 
Q 56.78125 9.90625 50.3125 4.234375 
Q 43.84375 -1.421875 31.78125 -1.421875 
Q 19.734375 -1.421875 13.25 4.234375 
Q 6.78125 9.90625 6.78125 20.515625 
Q 6.78125 27.484375 10.78125 32.3125 
Q 14.796875 37.15625 21.921875 38.8125 
M 18.3125 54.390625 
Q 18.3125 48.734375 21.84375 45.5625 
Q 25.390625 42.390625 31.78125 42.390625 
Q 38.140625 42.390625 41.71875 45.5625 
Q 45.3125 48.734375 45.3125 54.390625 
Q 45.3125 60.0625 41.71875 63.234375 
Q 38.140625 66.40625 31.78125 66.40625 
Q 25.390625 66.40625 21.84375 63.234375 
Q 18.3125 60.0625 18.3125 54.390625 
" id="BitstreamVeraSans-Roman-38"/>
       <path d="M 8.203125 72.90625 
L 55.078125 72.90625 
L 55.078125 68.703125 
L 28.609375 0 
L 18.3125 0 
L 43.21875 64.59375 
L 8.203125 64.59375 
z
" id="BitstreamVeraSans-Roman-37"/>
      </defs>
      <g transform="translate(172.365 499.118125)scale(0.12 -0.12)">
       <use xlink:href="#BitstreamVeraSans-Roman-37"/>
       <use x="63.623046875" xlink:href="#BitstreamVeraSans-Roman-38"/>
      </g>
     </g>
    </g>
    <g id="xtick_2">
     <g id="line2d_27">
      <g>
       <use style="stroke:#000000;stroke-width:0.5;" x="304.0" xlink:href="#m5716efce97" y="486.0"/>
      </g>
     </g>
     <g id="line2d_28">
      <g>
       <use style="stroke:#000000;stroke-width:0.5;" x="304.0" xlink:href="#m6399ec3417" y="54.0"/>
      </g>
     </g>
     <g id="text_2">
      <!-- 80 -->
      <defs>
       <path d="M 31.78125 66.40625 
Q 24.171875 66.40625 20.328125 58.90625 
Q 16.5 51.421875 16.5 36.375 
Q 16.5 21.390625 20.328125 13.890625 
Q 24.171875 6.390625 31.78125 6.390625 
Q 39.453125 6.390625 43.28125 13.890625 
Q 47.125 21.390625 47.125 36.375 
Q 47.125 51.421875 43.28125 58.90625 
Q 39.453125 66.40625 31.78125 66.40625 
M 31.78125 74.21875 
Q 44.046875 74.21875 50.515625 64.515625 
Q 56.984375 54.828125 56.984375 36.375 
Q 56.984375 17.96875 50.515625 8.265625 
Q 44.046875 -1.421875 31.78125 -1.421875 
Q 19.53125 -1.421875 13.0625 8.265625 
Q 6.59375 17.96875 6.59375 36.375 
Q 6.59375 54.828125 13.0625 64.515625 
Q 19.53125 74.21875 31.78125 74.21875 
" id="BitstreamVeraSans-Roman-30"/>
      </defs>
      <g transform="translate(296.365 499.118125)scale(0.12 -0.12)">
       <use xlink:href="#BitstreamVeraSans-Roman-38"/>
       <use x="63.623046875" xlink:href="#BitstreamVeraSans-Roman-30"/>
      </g>
     </g>
    </g>
    <g id="xtick_3">
     <g id="line2d_29">
      <g>
       <use style="stroke:#000000;stroke-width:0.5;" x="428.0" xlink:href="#m5716efce97" y="486.0"/>
      </g>
     </g>
     <g id="line2d_30">
      <g>
       <use style="stroke:#000000;stroke-width:0.5;" x="428.0" xlink:href="#m6399ec3417" y="54.0"/>
      </g>
     </g>
     <g id="text_3">
      <!-- 82 -->
      <defs>
       <path d="M 19.1875 8.296875 
L 53.609375 8.296875 
L 53.609375 0 
L 7.328125 0 
L 7.328125 8.296875 
Q 12.9375 14.109375 22.625 23.890625 
Q 32.328125 33.6875 34.8125 36.53125 
Q 39.546875 41.84375 41.421875 45.53125 
Q 43.3125 49.21875 43.3125 52.78125 
Q 43.3125 58.59375 39.234375 62.25 
Q 35.15625 65.921875 28.609375 65.921875 
Q 23.96875 65.921875 18.8125 64.3125 
Q 13.671875 62.703125 7.8125 59.421875 
L 7.8125 69.390625 
Q 13.765625 71.78125 18.9375 73 
Q 24.125 74.21875 28.421875 74.21875 
Q 39.75 74.21875 46.484375 68.546875 
Q 53.21875 62.890625 53.21875 53.421875 
Q 53.21875 48.921875 51.53125 44.890625 
Q 49.859375 40.875 45.40625 35.40625 
Q 44.1875 33.984375 37.640625 27.21875 
Q 31.109375 20.453125 19.1875 8.296875 
" id="BitstreamVeraSans-Roman-32"/>
      </defs>
      <g transform="translate(420.365 499.118125)scale(0.12 -0.12)">
       <use xlink:href="#BitstreamVeraSans-Roman-38"/>
       <use x="63.623046875" xlink:href="#BitstreamVeraSans-Roman-32"/>
      </g>
     </g>
    </g>
    <g id="xtick_4">
     <g id="line2d_31">
      <g>
       <use style="stroke:#000000;stroke-width:0.5;" x="552.0" xlink:href="#m5716efce97" y="486.0"/>
      </g>
     </g>
     <g id="line2d_32">
      <g>
       <use style="stroke:#000000;stroke-width:0.5;" x="552.0" xlink:href="#m6399ec3417" y="54.0"/>
      </g>
     </g>
     <g id="text_4">
      <!-- 84 -->
      <defs>
       <path d="M 37.796875 64.3125 
L 12.890625 25.390625 
L 37.796875 25.390625 
z
M 35.203125 72.90625 
L 47.609375 72.90625 
L 47.609375 25.390625 
L 58.015625 25.390625 
L 58.015625 17.1875 
L 47.609375 17.1875 
L 47.609375 0 
L 37.796875 0 
L 37.796875 17.1875 
L 4.890625 17.1875 
L 4.890625 26.703125 
z
" id="BitstreamVeraSans-Roman-34"/>
      </defs>
      <g transform="translate(544.365 499.118125)scale(0.12 -0.12)">
       <use xlink:href="#BitstreamVeraSans-Roman-38"/>
       <use x="63.623046875" xlink:href="#BitstreamVeraSans-Roman-34"/>
      </g>
     </g>
    </g>
    <g id="xtick_5">
     <g id="line2d_33">
      <g>
       <use style="stroke:#000000;stroke-width:0.5;" x="676.0" xlink:href="#m5716efce97" y="486.0"/>
      </g>
     </g>
     <g id="line2d_34">
      <g>
       <use style="stroke:#000000;stroke-width:0.5;" x="676.0" xlink:href="#m6399ec3417" y="54.0"/>
      </g>
     </g>
     <g id="text_5">
      <!-- 86 -->
      <defs>
       <path d="M 33.015625 40.375 
Q 26.375 40.375 22.484375 35.828125 
Q 18.609375 31.296875 18.609375 23.390625 
Q 18.609375 15.53125 22.484375 10.953125 
Q 26.375 6.390625 33.015625 6.390625 
Q 39.65625 6.390625 43.53125 10.953125 
Q 47.40625 15.53125 47.40625 23.390625 
Q 47.40625 31.296875 43.53125 35.828125 
Q 39.65625 40.375 33.015625 40.375 
M 52.59375 71.296875 
L 52.59375 62.3125 
Q 48.875 64.0625 45.09375 64.984375 
Q 41.3125 65.921875 37.59375 65.921875 
Q 27.828125 65.921875 22.671875 59.328125 
Q 17.53125 52.734375 16.796875 39.40625 
Q 19.671875 43.65625 24.015625 45.921875 
Q 28.375 48.1875 33.59375 48.1875 
Q 44.578125 48.1875 50.953125 41.515625 
Q 57.328125 34.859375 57.328125 23.390625 
Q 57.328125 12.15625 50.6875 5.359375 
Q 44.046875 -1.421875 33.015625 -1.421875 
Q 20.359375 -1.421875 13.671875 8.265625 
Q 6.984375 17.96875 6.984375 36.375 
Q 6.984375 53.65625 15.1875 63.9375 
Q 23.390625 74.21875 37.203125 74.21875 
Q 40.921875 74.21875 44.703125 73.484375 
Q 48.484375 72.75 52.59375 71.296875 
" id="BitstreamVeraSans-Roman-36"/>
      </defs>
      <g transform="translate(668.365 499.118125)scale(0.12 -0.12)">
       <use xlink:href="#BitstreamVeraSans-Roman-38"/>
       <use x="63.623046875" xlink:href="#BitstreamVeraSans-Roman-36"/>
      </g>
     </g>
    </g>
    <g id="xtick_6">
     <g id="line2d_35">
      <g>
       <use style="stroke:#000000;stroke-width:0.5;" x="800.0" xlink:href="#m5716efce97" y="486.0"/>
      </g>
     </g>
     <g id="line2d_36">
      <g>
       <use style="stroke:#000000;stroke-width:0.5;" x="800.0" xlink:href="#m6399ec3417" y="54.0"/>
      </g>
     </g>
     <g id="text_6">
      <!-- 88 -->
      <g transform="translate(792.365 499.118125)scale(0.12 -0.12)">
       <use xlink:href="#BitstreamVeraSans-Roman-38"/>
       <use x="63.623046875" xlink:href="#BitstreamVeraSans-Roman-38"/>
      </g>
     </g>
    </g>
    <g id="xtick_7">
     <g id="line2d_37">
      <g>
       <use style="stroke:#000000;stroke-width:0.5;" x="924.0" xlink:href="#m5716efce97" y="486.0"/>
      </g>
     </g>
     <g id="line2d_38">
      <g>
       <use style="stroke:#000000;stroke-width:0.5;" x="924.0" xlink:href="#m6399ec3417" y="54.0"/>
      </g>
     </g>
     <g id="text_7">
      <!-- 90 -->
      <defs>
       <path d="M 10.984375 1.515625 
L 10.984375 10.5 
Q 14.703125 8.734375 18.5 7.8125 
Q 22.3125 6.890625 25.984375 6.890625 
Q 35.75 6.890625 40.890625 13.453125 
Q 46.046875 20.015625 46.78125 33.40625 
Q 43.953125 29.203125 39.59375 26.953125 
Q 35.25 24.703125 29.984375 24.703125 
Q 19.046875 24.703125 12.671875 31.3125 
Q 6.296875 37.9375 6.296875 49.421875 
Q 6.296875 60.640625 12.9375 67.421875 
Q 19.578125 74.21875 30.609375 74.21875 
Q 43.265625 74.21875 49.921875 64.515625 
Q 56.59375 54.828125 56.59375 36.375 
Q 56.59375 19.140625 48.40625 8.859375 
Q 40.234375 -1.421875 26.421875 -1.421875 
Q 22.703125 -1.421875 18.890625 -0.6875 
Q 15.09375 0.046875 10.984375 1.515625 
M 30.609375 32.421875 
Q 37.25 32.421875 41.125 36.953125 
Q 45.015625 41.5 45.015625 49.421875 
Q 45.015625 57.28125 41.125 61.84375 
Q 37.25 66.40625 30.609375 66.40625 
Q 23.96875 66.40625 20.09375 61.84375 
Q 16.21875 57.28125 16.21875 49.421875 
Q 16.21875 41.5 20.09375 36.953125 
Q 23.96875 32.421875 30.609375 32.421875 
" id="BitstreamVeraSans-Roman-39"/>
      </defs>
      <g transform="translate(916.365 499.118125)scale(0.12 -0.12)">
       <use xlink:href="#BitstreamVeraSans-Roman-39"/>
       <use x="63.623046875" xlink:href="#BitstreamVeraSans-Roman-30"/>
      </g>
     </g>
    </g>
    <g id="xtick_8">
     <g id="line2d_39">
      <g>
       <use style="stroke:#000000;stroke-width:0.5;" x="1048.0" xlink:href="#m5716efce97" y="486.0"/>
      </g>
     </g>
     <g id="line2d_40">
      <g>
       <use style="stroke:#000000;stroke-width:0.5;" x="1048.0" xlink:href="#m6399ec3417" y="54.0"/>
      </g>
     </g>
     <g id="text_8">
      <!-- 92 -->
      <g transform="translate(1040.365 499.118125)scale(0.12 -0.12)">
       <use xlink:href="#BitstreamVeraSans-Roman-39"/>
       <use x="63.623046875" xlink:href="#BitstreamVeraSans-Roman-32"/>
      </g>
     </g>
    </g>
    <g id="xtick_9">
     <g id="line2d_41">
      <g>
       <use style="stroke:#000000;stroke-width:0.5;" x="1172.0" xlink:href="#m5716efce97" y="486.0"/>
      </g>
     </g>
     <g id="line2d_42">
      <g>
       <use style="stroke:#000000;stroke-width:0.5;" x="1172.0" xlink:href="#m6399ec3417" y="54.0"/>
      </g>
     </g>
     <g id="text_9">
      <!-- 94 -->
      <g transform="translate(1164.365 499.118125)scale(0.12 -0.12)">
       <use xlink:href="#BitstreamVeraSans-Roman-39"/>
       <use x="63.623046875" xlink:href="#BitstreamVeraSans-Roman-34"/>
      </g>
     </g>
    </g>
    <g id="xtick_10">
     <g id="line2d_43">
      <g>
       <use style="stroke:#000000;stroke-width:0.5;" x="1296.0" xlink:href="#m5716efce97" y="486.0"/>
      </g>
     </g>
     <g id="line2d_44">
      <g>
       <use style="stroke:#000000;stroke-width:0.5;" x="1296.0" xlink:href="#m6399ec3417" y="54.0"/>
      </g>
     </g>
     <g id="text_10">
      <!-- 96 -->
      <g transform="translate(1288.365 499.118125)scale(0.12 -0.12)">
       <use xlink:href="#BitstreamVeraSans-Roman-39"/>
       <use x="63.623046875" xlink:href="#BitstreamVeraSans-Roman-36"/>
      </g>
     </g>
    </g>
    <g id="text_11">
     <!-- musical score in-sync accuracy (%) -->
     <defs>
      <path id="BitstreamVeraSans-Roman-20"/>
      <path d="M 72.703125 32.078125 
Q 68.453125 32.078125 66.03125 28.46875 
Q 63.625 24.859375 63.625 18.40625 
Q 63.625 12.0625 66.03125 8.421875 
Q 68.453125 4.78125 72.703125 4.78125 
Q 76.859375 4.78125 79.265625 8.421875 
Q 81.6875 12.0625 81.6875 18.40625 
Q 81.6875 24.8125 79.265625 28.4375 
Q 76.859375 32.078125 72.703125 32.078125 
M 72.703125 38.28125 
Q 80.421875 38.28125 84.953125 32.90625 
Q 89.5 27.546875 89.5 18.40625 
Q 89.5 9.28125 84.9375 3.921875 
Q 80.375 -1.421875 72.703125 -1.421875 
Q 64.890625 -1.421875 60.34375 3.921875 
Q 55.8125 9.28125 55.8125 18.40625 
Q 55.8125 27.59375 60.375 32.9375 
Q 64.9375 38.28125 72.703125 38.28125 
M 22.3125 68.015625 
Q 18.109375 68.015625 15.6875 64.375 
Q 13.28125 60.75 13.28125 54.390625 
Q 13.28125 47.953125 15.671875 44.328125 
Q 18.0625 40.71875 22.3125 40.71875 
Q 26.5625 40.71875 28.96875 44.328125 
Q 31.390625 47.953125 31.390625 54.390625 
Q 31.390625 60.6875 28.953125 64.34375 
Q 26.515625 68.015625 22.3125 68.015625 
M 66.40625 74.21875 
L 74.21875 74.21875 
L 28.609375 -1.421875 
L 20.796875 -1.421875 
z
M 22.3125 74.21875 
Q 30.03125 74.21875 34.609375 68.875 
Q 39.203125 63.53125 39.203125 54.390625 
Q 39.203125 45.171875 34.640625 39.84375 
Q 30.078125 34.515625 22.3125 34.515625 
Q 14.546875 34.515625 10.03125 39.859375 
Q 5.515625 45.21875 5.515625 54.390625 
Q 5.515625 63.484375 10.046875 68.84375 
Q 14.59375 74.21875 22.3125 74.21875 
" id="BitstreamVeraSans-Roman-25"/>
      <path d="M 41.109375 46.296875 
Q 39.59375 47.171875 37.8125 47.578125 
Q 36.03125 48 33.890625 48 
Q 26.265625 48 22.1875 43.046875 
Q 18.109375 38.09375 18.109375 28.8125 
L 18.109375 0 
L 9.078125 0 
L 9.078125 54.6875 
L 18.109375 54.6875 
L 18.109375 46.1875 
Q 20.953125 51.171875 25.484375 53.578125 
Q 30.03125 56 36.53125 56 
Q 37.453125 56 38.578125 55.875 
Q 39.703125 55.765625 41.0625 55.515625 
z
" id="BitstreamVeraSans-Roman-72"/>
      <path d="M 52 44.1875 
Q 55.375 50.25 60.0625 53.125 
Q 64.75 56 71.09375 56 
Q 79.640625 56 84.28125 50.015625 
Q 88.921875 44.046875 88.921875 33.015625 
L 88.921875 0 
L 79.890625 0 
L 79.890625 32.71875 
Q 79.890625 40.578125 77.09375 44.375 
Q 74.3125 48.1875 68.609375 48.1875 
Q 61.625 48.1875 57.5625 43.546875 
Q 53.515625 38.921875 53.515625 30.90625 
L 53.515625 0 
L 44.484375 0 
L 44.484375 32.71875 
Q 44.484375 40.625 41.703125 44.40625 
Q 38.921875 48.1875 33.109375 48.1875 
Q 26.21875 48.1875 22.15625 43.53125 
Q 18.109375 38.875 18.109375 30.90625 
L 18.109375 0 
L 9.078125 0 
L 9.078125 54.6875 
L 18.109375 54.6875 
L 18.109375 46.1875 
Q 21.1875 51.21875 25.484375 53.609375 
Q 29.78125 56 35.6875 56 
Q 41.65625 56 45.828125 52.96875 
Q 50 49.953125 52 44.1875 
" id="BitstreamVeraSans-Roman-6d"/>
      <path d="M 30.609375 48.390625 
Q 23.390625 48.390625 19.1875 42.75 
Q 14.984375 37.109375 14.984375 27.296875 
Q 14.984375 17.484375 19.15625 11.84375 
Q 23.34375 6.203125 30.609375 6.203125 
Q 37.796875 6.203125 41.984375 11.859375 
Q 46.1875 17.53125 46.1875 27.296875 
Q 46.1875 37.015625 41.984375 42.703125 
Q 37.796875 48.390625 30.609375 48.390625 
M 30.609375 56 
Q 42.328125 56 49.015625 48.375 
Q 55.71875 40.765625 55.71875 27.296875 
Q 55.71875 13.875 49.015625 6.21875 
Q 42.328125 -1.421875 30.609375 -1.421875 
Q 18.84375 -1.421875 12.171875 6.21875 
Q 5.515625 13.875 5.515625 27.296875 
Q 5.515625 40.765625 12.171875 48.375 
Q 18.84375 56 30.609375 56 
" id="BitstreamVeraSans-Roman-6f"/>
      <path d="M 31 75.875 
Q 24.46875 64.65625 21.28125 53.65625 
Q 18.109375 42.671875 18.109375 31.390625 
Q 18.109375 20.125 21.3125 9.0625 
Q 24.515625 -2 31 -13.1875 
L 23.1875 -13.1875 
Q 15.875 -1.703125 12.234375 9.375 
Q 8.59375 20.453125 8.59375 31.390625 
Q 8.59375 42.28125 12.203125 53.3125 
Q 15.828125 64.359375 23.1875 75.875 
z
" id="BitstreamVeraSans-Roman-28"/>
      <path d="M 9.421875 75.984375 
L 18.40625 75.984375 
L 18.40625 0 
L 9.421875 0 
z
" id="BitstreamVeraSans-Roman-6c"/>
      <path d="M 54.890625 33.015625 
L 54.890625 0 
L 45.90625 0 
L 45.90625 32.71875 
Q 45.90625 40.484375 42.875 44.328125 
Q 39.84375 48.1875 33.796875 48.1875 
Q 26.515625 48.1875 22.3125 43.546875 
Q 18.109375 38.921875 18.109375 30.90625 
L 18.109375 0 
L 9.078125 0 
L 9.078125 54.6875 
L 18.109375 54.6875 
L 18.109375 46.1875 
Q 21.34375 51.125 25.703125 53.5625 
Q 30.078125 56 35.796875 56 
Q 45.21875 56 50.046875 50.171875 
Q 54.890625 44.34375 54.890625 33.015625 
" id="BitstreamVeraSans-Roman-6e"/>
      <path d="M 9.421875 54.6875 
L 18.40625 54.6875 
L 18.40625 0 
L 9.421875 0 
z
M 9.421875 75.984375 
L 18.40625 75.984375 
L 18.40625 64.59375 
L 9.421875 64.59375 
z
" id="BitstreamVeraSans-Roman-69"/>
      <path d="M 4.890625 31.390625 
L 31.203125 31.390625 
L 31.203125 23.390625 
L 4.890625 23.390625 
z
" id="BitstreamVeraSans-Roman-2d"/>
      <path d="M 32.171875 -5.078125 
Q 28.375 -14.84375 24.75 -17.8125 
Q 21.140625 -20.796875 15.09375 -20.796875 
L 7.90625 -20.796875 
L 7.90625 -13.28125 
L 13.1875 -13.28125 
Q 16.890625 -13.28125 18.9375 -11.515625 
Q 21 -9.765625 23.484375 -3.21875 
L 25.09375 0.875 
L 2.984375 54.6875 
L 12.5 54.6875 
L 29.59375 11.921875 
L 46.6875 54.6875 
L 56.203125 54.6875 
z
" id="BitstreamVeraSans-Roman-79"/>
      <path d="M 56.203125 29.59375 
L 56.203125 25.203125 
L 14.890625 25.203125 
Q 15.484375 15.921875 20.484375 11.0625 
Q 25.484375 6.203125 34.421875 6.203125 
Q 39.59375 6.203125 44.453125 7.46875 
Q 49.3125 8.734375 54.109375 11.28125 
L 54.109375 2.78125 
Q 49.265625 0.734375 44.1875 -0.34375 
Q 39.109375 -1.421875 33.890625 -1.421875 
Q 20.796875 -1.421875 13.15625 6.1875 
Q 5.515625 13.8125 5.515625 26.8125 
Q 5.515625 40.234375 12.765625 48.109375 
Q 20.015625 56 32.328125 56 
Q 43.359375 56 49.78125 48.890625 
Q 56.203125 41.796875 56.203125 29.59375 
M 47.21875 32.234375 
Q 47.125 39.59375 43.09375 43.984375 
Q 39.0625 48.390625 32.421875 48.390625 
Q 24.90625 48.390625 20.390625 44.140625 
Q 15.875 39.890625 15.1875 32.171875 
z
" id="BitstreamVeraSans-Roman-65"/>
      <path d="M 8.015625 75.875 
L 15.828125 75.875 
Q 23.140625 64.359375 26.78125 53.3125 
Q 30.421875 42.28125 30.421875 31.390625 
Q 30.421875 20.453125 26.78125 9.375 
Q 23.140625 -1.703125 15.828125 -13.1875 
L 8.015625 -13.1875 
Q 14.5 -2 17.703125 9.0625 
Q 20.90625 20.125 20.90625 31.390625 
Q 20.90625 42.671875 17.703125 53.65625 
Q 14.5 64.65625 8.015625 75.875 
" id="BitstreamVeraSans-Roman-29"/>
      <path d="M 8.5 21.578125 
L 8.5 54.6875 
L 17.484375 54.6875 
L 17.484375 21.921875 
Q 17.484375 14.15625 20.5 10.265625 
Q 23.53125 6.390625 29.59375 6.390625 
Q 36.859375 6.390625 41.078125 11.03125 
Q 45.3125 15.671875 45.3125 23.6875 
L 45.3125 54.6875 
L 54.296875 54.6875 
L 54.296875 0 
L 45.3125 0 
L 45.3125 8.40625 
Q 42.046875 3.421875 37.71875 1 
Q 33.40625 -1.421875 27.6875 -1.421875 
Q 18.265625 -1.421875 13.375 4.4375 
Q 8.5 10.296875 8.5 21.578125 
" id="BitstreamVeraSans-Roman-75"/>
      <path d="M 34.28125 27.484375 
Q 23.390625 27.484375 19.1875 25 
Q 14.984375 22.515625 14.984375 16.5 
Q 14.984375 11.71875 18.140625 8.90625 
Q 21.296875 6.109375 26.703125 6.109375 
Q 34.1875 6.109375 38.703125 11.40625 
Q 43.21875 16.703125 43.21875 25.484375 
L 43.21875 27.484375 
z
M 52.203125 31.203125 
L 52.203125 0 
L 43.21875 0 
L 43.21875 8.296875 
Q 40.140625 3.328125 35.546875 0.953125 
Q 30.953125 -1.421875 24.3125 -1.421875 
Q 15.921875 -1.421875 10.953125 3.296875 
Q 6 8.015625 6 15.921875 
Q 6 25.140625 12.171875 29.828125 
Q 18.359375 34.515625 30.609375 34.515625 
L 43.21875 34.515625 
L 43.21875 35.40625 
Q 43.21875 41.609375 39.140625 45 
Q 35.0625 48.390625 27.6875 48.390625 
Q 23 48.390625 18.546875 47.265625 
Q 14.109375 46.140625 10.015625 43.890625 
L 10.015625 52.203125 
Q 14.9375 54.109375 19.578125 55.046875 
Q 24.21875 56 28.609375 56 
Q 40.484375 56 46.34375 49.84375 
Q 52.203125 43.703125 52.203125 31.203125 
" id="BitstreamVeraSans-Roman-61"/>
      <path d="M 44.28125 53.078125 
L 44.28125 44.578125 
Q 40.484375 46.53125 36.375 47.5 
Q 32.28125 48.484375 27.875 48.484375 
Q 21.1875 48.484375 17.84375 46.4375 
Q 14.5 44.390625 14.5 40.28125 
Q 14.5 37.15625 16.890625 35.375 
Q 19.28125 33.59375 26.515625 31.984375 
L 29.59375 31.296875 
Q 39.15625 29.25 43.1875 25.515625 
Q 47.21875 21.78125 47.21875 15.09375 
Q 47.21875 7.46875 41.1875 3.015625 
Q 35.15625 -1.421875 24.609375 -1.421875 
Q 20.21875 -1.421875 15.453125 -0.5625 
Q 10.6875 0.296875 5.421875 2 
L 5.421875 11.28125 
Q 10.40625 8.6875 15.234375 7.390625 
Q 20.0625 6.109375 24.8125 6.109375 
Q 31.15625 6.109375 34.5625 8.28125 
Q 37.984375 10.453125 37.984375 14.40625 
Q 37.984375 18.0625 35.515625 20.015625 
Q 33.0625 21.96875 24.703125 23.78125 
L 21.578125 24.515625 
Q 13.234375 26.265625 9.515625 29.90625 
Q 5.8125 33.546875 5.8125 39.890625 
Q 5.8125 47.609375 11.28125 51.796875 
Q 16.75 56 26.8125 56 
Q 31.78125 56 36.171875 55.265625 
Q 40.578125 54.546875 44.28125 53.078125 
" id="BitstreamVeraSans-Roman-73"/>
      <path d="M 48.78125 52.59375 
L 48.78125 44.1875 
Q 44.96875 46.296875 41.140625 47.34375 
Q 37.3125 48.390625 33.40625 48.390625 
Q 24.65625 48.390625 19.8125 42.84375 
Q 14.984375 37.3125 14.984375 27.296875 
Q 14.984375 17.28125 19.8125 11.734375 
Q 24.65625 6.203125 33.40625 6.203125 
Q 37.3125 6.203125 41.140625 7.25 
Q 44.96875 8.296875 48.78125 10.40625 
L 48.78125 2.09375 
Q 45.015625 0.34375 40.984375 -0.53125 
Q 36.96875 -1.421875 32.421875 -1.421875 
Q 20.0625 -1.421875 12.78125 6.34375 
Q 5.515625 14.109375 5.515625 27.296875 
Q 5.515625 40.671875 12.859375 48.328125 
Q 20.21875 56 33.015625 56 
Q 37.15625 56 41.109375 55.140625 
Q 45.0625 54.296875 48.78125 52.59375 
" id="BitstreamVeraSans-Roman-63"/>
     </defs>
     <g transform="translate(491.06625 527.889375)scale(0.28 -0.28)">
      <use xlink:href="#BitstreamVeraSans-Roman-6d"/>
      <use x="97.412109375" xlink:href="#BitstreamVeraSans-Roman-75"/>
      <use x="160.791015625" xlink:href="#BitstreamVeraSans-Roman-73"/>
      <use x="212.890625" xlink:href="#BitstreamVeraSans-Roman-69"/>
      <use x="240.673828125" xlink:href="#BitstreamVeraSans-Roman-63"/>
      <use x="295.654296875" xlink:href="#BitstreamVeraSans-Roman-61"/>
      <use x="356.93359375" xlink:href="#BitstreamVeraSans-Roman-6c"/>
      <use x="384.716796875" xlink:href="#BitstreamVeraSans-Roman-20"/>
      <use x="416.50390625" xlink:href="#BitstreamVeraSans-Roman-73"/>
      <use x="468.603515625" xlink:href="#BitstreamVeraSans-Roman-63"/>
      <use x="523.583984375" xlink:href="#BitstreamVeraSans-Roman-6f"/>
      <use x="584.765625" xlink:href="#BitstreamVeraSans-Roman-72"/>
      <use x="625.84765625" xlink:href="#BitstreamVeraSans-Roman-65"/>
      <use x="687.37109375" xlink:href="#BitstreamVeraSans-Roman-20"/>
      <use x="719.158203125" xlink:href="#BitstreamVeraSans-Roman-69"/>
      <use x="746.94140625" xlink:href="#BitstreamVeraSans-Roman-6e"/>
      <use x="810.3203125" xlink:href="#BitstreamVeraSans-Roman-2d"/>
      <use x="846.404296875" xlink:href="#BitstreamVeraSans-Roman-73"/>
      <use x="898.50390625" xlink:href="#BitstreamVeraSans-Roman-79"/>
      <use x="957.68359375" xlink:href="#BitstreamVeraSans-Roman-6e"/>
      <use x="1021.0625" xlink:href="#BitstreamVeraSans-Roman-63"/>
      <use x="1076.04296875" xlink:href="#BitstreamVeraSans-Roman-20"/>
      <use x="1107.83007812" xlink:href="#BitstreamVeraSans-Roman-61"/>
      <use x="1169.109375" xlink:href="#BitstreamVeraSans-Roman-63"/>
      <use x="1224.08984375" xlink:href="#BitstreamVeraSans-Roman-63"/>
      <use x="1279.0703125" xlink:href="#BitstreamVeraSans-Roman-75"/>
      <use x="1342.44921875" xlink:href="#BitstreamVeraSans-Roman-72"/>
      <use x="1383.5625" xlink:href="#BitstreamVeraSans-Roman-61"/>
      <use x="1444.84179688" xlink:href="#BitstreamVeraSans-Roman-63"/>
      <use x="1499.82226562" xlink:href="#BitstreamVeraSans-Roman-79"/>
      <use x="1559.00195312" xlink:href="#BitstreamVeraSans-Roman-20"/>
      <use x="1590.7890625" xlink:href="#BitstreamVeraSans-Roman-28"/>
      <use x="1629.80273438" xlink:href="#BitstreamVeraSans-Roman-25"/>
      <use x="1724.82226562" xlink:href="#BitstreamVeraSans-Roman-29"/>
     </g>
    </g>
   </g>
   <g id="matplotlib.axis_2">
    <g id="ytick_1">
     <g id="line2d_45">
      <path clip-path="url(#p55745b0038)" d="M 180 486 
L 1296 486 
" style="fill:none;stroke:#000000;stroke-dasharray:1.000000,3.000000;stroke-dashoffset:0.0;stroke-width:0.5;"/>
     </g>
     <g id="line2d_46">
      <defs>
       <path d="M 0 0 
L 4 0 
" id="md774be29d0" style="stroke:#000000;stroke-width:0.5;"/>
      </defs>
      <g>
       <use style="stroke:#000000;stroke-width:0.5;" x="180.0" xlink:href="#md774be29d0" y="486.0"/>
      </g>
     </g>
     <g id="line2d_47">
      <defs>
       <path d="M 0 0 
L -4 0 
" id="m9610ab2b55" style="stroke:#000000;stroke-width:0.5;"/>
      </defs>
      <g>
       <use style="stroke:#000000;stroke-width:0.5;" x="1296.0" xlink:href="#m9610ab2b55" y="486.0"/>
      </g>
     </g>
     <g id="text_12">
      <!-- 40 -->
      <g transform="translate(160.73 489.31125)scale(0.12 -0.12)">
       <use xlink:href="#BitstreamVeraSans-Roman-34"/>
       <use x="63.623046875" xlink:href="#BitstreamVeraSans-Roman-30"/>
      </g>
     </g>
    </g>
    <g id="ytick_2">
     <g id="line2d_48">
      <path clip-path="url(#p55745b0038)" d="M 180 414 
L 1296 414 
" style="fill:none;stroke:#000000;stroke-dasharray:1.000000,3.000000;stroke-dashoffset:0.0;stroke-width:0.5;"/>
     </g>
     <g id="line2d_49">
      <g>
       <use style="stroke:#000000;stroke-width:0.5;" x="180.0" xlink:href="#md774be29d0" y="414.0"/>
      </g>
     </g>
     <g id="line2d_50">
      <g>
       <use style="stroke:#000000;stroke-width:0.5;" x="1296.0" xlink:href="#m9610ab2b55" y="414.0"/>
      </g>
     </g>
     <g id="text_13">
      <!-- 50 -->
      <defs>
       <path d="M 10.796875 72.90625 
L 49.515625 72.90625 
L 49.515625 64.59375 
L 19.828125 64.59375 
L 19.828125 46.734375 
Q 21.96875 47.46875 24.109375 47.828125 
Q 26.265625 48.1875 28.421875 48.1875 
Q 40.625 48.1875 47.75 41.5 
Q 54.890625 34.8125 54.890625 23.390625 
Q 54.890625 11.625 47.5625 5.09375 
Q 40.234375 -1.421875 26.90625 -1.421875 
Q 22.3125 -1.421875 17.546875 -0.640625 
Q 12.796875 0.140625 7.71875 1.703125 
L 7.71875 11.625 
Q 12.109375 9.234375 16.796875 8.0625 
Q 21.484375 6.890625 26.703125 6.890625 
Q 35.15625 6.890625 40.078125 11.328125 
Q 45.015625 15.765625 45.015625 23.390625 
Q 45.015625 31 40.078125 35.4375 
Q 35.15625 39.890625 26.703125 39.890625 
Q 22.75 39.890625 18.8125 39.015625 
Q 14.890625 38.140625 10.796875 36.28125 
z
" id="BitstreamVeraSans-Roman-35"/>
      </defs>
      <g transform="translate(160.73 417.31125)scale(0.12 -0.12)">
       <use xlink:href="#BitstreamVeraSans-Roman-35"/>
       <use x="63.623046875" xlink:href="#BitstreamVeraSans-Roman-30"/>
      </g>
     </g>
    </g>
    <g id="ytick_3">
     <g id="line2d_51">
      <path clip-path="url(#p55745b0038)" d="M 180 342 
L 1296 342 
" style="fill:none;stroke:#000000;stroke-dasharray:1.000000,3.000000;stroke-dashoffset:0.0;stroke-width:0.5;"/>
     </g>
     <g id="line2d_52">
      <g>
       <use style="stroke:#000000;stroke-width:0.5;" x="180.0" xlink:href="#md774be29d0" y="342.0"/>
      </g>
     </g>
     <g id="line2d_53">
      <g>
       <use style="stroke:#000000;stroke-width:0.5;" x="1296.0" xlink:href="#m9610ab2b55" y="342.0"/>
      </g>
     </g>
     <g id="text_14">
      <!-- 60 -->
      <g transform="translate(160.73 345.31125)scale(0.12 -0.12)">
       <use xlink:href="#BitstreamVeraSans-Roman-36"/>
       <use x="63.623046875" xlink:href="#BitstreamVeraSans-Roman-30"/>
      </g>
     </g>
    </g>
    <g id="ytick_4">
     <g id="line2d_54">
      <path clip-path="url(#p55745b0038)" d="M 180 270 
L 1296 270 
" style="fill:none;stroke:#000000;stroke-dasharray:1.000000,3.000000;stroke-dashoffset:0.0;stroke-width:0.5;"/>
     </g>
     <g id="line2d_55">
      <g>
       <use style="stroke:#000000;stroke-width:0.5;" x="180.0" xlink:href="#md774be29d0" y="270.0"/>
      </g>
     </g>
     <g id="line2d_56">
      <g>
       <use style="stroke:#000000;stroke-width:0.5;" x="1296.0" xlink:href="#m9610ab2b55" y="270.0"/>
      </g>
     </g>
     <g id="text_15">
      <!-- 70 -->
      <g transform="translate(160.73 273.31125)scale(0.12 -0.12)">
       <use xlink:href="#BitstreamVeraSans-Roman-37"/>
       <use x="63.623046875" xlink:href="#BitstreamVeraSans-Roman-30"/>
      </g>
     </g>
    </g>
    <g id="ytick_5">
     <g id="line2d_57">
      <path clip-path="url(#p55745b0038)" d="M 180 198 
L 1296 198 
" style="fill:none;stroke:#000000;stroke-dasharray:1.000000,3.000000;stroke-dashoffset:0.0;stroke-width:0.5;"/>
     </g>
     <g id="line2d_58">
      <g>
       <use style="stroke:#000000;stroke-width:0.5;" x="180.0" xlink:href="#md774be29d0" y="198.0"/>
      </g>
     </g>
     <g id="line2d_59">
      <g>
       <use style="stroke:#000000;stroke-width:0.5;" x="1296.0" xlink:href="#m9610ab2b55" y="198.0"/>
      </g>
     </g>
     <g id="text_16">
      <!-- 80 -->
      <g transform="translate(160.73 201.31125)scale(0.12 -0.12)">
       <use xlink:href="#BitstreamVeraSans-Roman-38"/>
       <use x="63.623046875" xlink:href="#BitstreamVeraSans-Roman-30"/>
      </g>
     </g>
    </g>
    <g id="ytick_6">
     <g id="line2d_60">
      <path clip-path="url(#p55745b0038)" d="M 180 126 
L 1296 126 
" style="fill:none;stroke:#000000;stroke-dasharray:1.000000,3.000000;stroke-dashoffset:0.0;stroke-width:0.5;"/>
     </g>
     <g id="line2d_61">
      <g>
       <use style="stroke:#000000;stroke-width:0.5;" x="180.0" xlink:href="#md774be29d0" y="126.0"/>
      </g>
     </g>
     <g id="line2d_62">
      <g>
       <use style="stroke:#000000;stroke-width:0.5;" x="1296.0" xlink:href="#m9610ab2b55" y="126.0"/>
      </g>
     </g>
     <g id="text_17">
      <!-- 90 -->
      <g transform="translate(160.73 129.31125)scale(0.12 -0.12)">
       <use xlink:href="#BitstreamVeraSans-Roman-39"/>
       <use x="63.623046875" xlink:href="#BitstreamVeraSans-Roman-30"/>
      </g>
     </g>
    </g>
    <g id="ytick_7">
     <g id="line2d_63">
      <path clip-path="url(#p55745b0038)" d="M 180 54 
L 1296 54 
" style="fill:none;stroke:#000000;stroke-dasharray:1.000000,3.000000;stroke-dashoffset:0.0;stroke-width:0.5;"/>
     </g>
     <g id="line2d_64">
      <g>
       <use style="stroke:#000000;stroke-width:0.5;" x="180.0" xlink:href="#md774be29d0" y="54.0"/>
      </g>
     </g>
     <g id="line2d_65">
      <g>
       <use style="stroke:#000000;stroke-width:0.5;" x="1296.0" xlink:href="#m9610ab2b55" y="54.0"/>
      </g>
     </g>
     <g id="text_18">
      <!-- 100 -->
      <defs>
       <path d="M 12.40625 8.296875 
L 28.515625 8.296875 
L 28.515625 63.921875 
L 10.984375 60.40625 
L 10.984375 69.390625 
L 28.421875 72.90625 
L 38.28125 72.90625 
L 38.28125 8.296875 
L 54.390625 8.296875 
L 54.390625 0 
L 12.40625 0 
z
" id="BitstreamVeraSans-Roman-31"/>
      </defs>
      <g transform="translate(153.095 57.31125)scale(0.12 -0.12)">
       <use xlink:href="#BitstreamVeraSans-Roman-31"/>
       <use x="63.623046875" xlink:href="#BitstreamVeraSans-Roman-30"/>
       <use x="127.24609375" xlink:href="#BitstreamVeraSans-Roman-30"/>
      </g>
     </g>
    </g>
    <g id="text_19">
     <!-- alignment accuracy (%) -->
     <defs>
      <path d="M 45.40625 27.984375 
Q 45.40625 37.75 41.375 43.109375 
Q 37.359375 48.484375 30.078125 48.484375 
Q 22.859375 48.484375 18.828125 43.109375 
Q 14.796875 37.75 14.796875 27.984375 
Q 14.796875 18.265625 18.828125 12.890625 
Q 22.859375 7.515625 30.078125 7.515625 
Q 37.359375 7.515625 41.375 12.890625 
Q 45.40625 18.265625 45.40625 27.984375 
M 54.390625 6.78125 
Q 54.390625 -7.171875 48.1875 -13.984375 
Q 42 -20.796875 29.203125 -20.796875 
Q 24.46875 -20.796875 20.265625 -20.09375 
Q 16.0625 -19.390625 12.109375 -17.921875 
L 12.109375 -9.1875 
Q 16.0625 -11.328125 19.921875 -12.34375 
Q 23.78125 -13.375 27.78125 -13.375 
Q 36.625 -13.375 41.015625 -8.765625 
Q 45.40625 -4.15625 45.40625 5.171875 
L 45.40625 9.625 
Q 42.625 4.78125 38.28125 2.390625 
Q 33.9375 0 27.875 0 
Q 17.828125 0 11.671875 7.65625 
Q 5.515625 15.328125 5.515625 27.984375 
Q 5.515625 40.671875 11.671875 48.328125 
Q 17.828125 56 27.875 56 
Q 33.9375 56 38.28125 53.609375 
Q 42.625 51.21875 45.40625 46.390625 
L 45.40625 54.6875 
L 54.390625 54.6875 
z
" id="BitstreamVeraSans-Roman-67"/>
      <path d="M 18.3125 70.21875 
L 18.3125 54.6875 
L 36.8125 54.6875 
L 36.8125 47.703125 
L 18.3125 47.703125 
L 18.3125 18.015625 
Q 18.3125 11.328125 20.140625 9.421875 
Q 21.96875 7.515625 27.59375 7.515625 
L 36.8125 7.515625 
L 36.8125 0 
L 27.59375 0 
Q 17.1875 0 13.234375 3.875 
Q 9.28125 7.765625 9.28125 18.015625 
L 9.28125 47.703125 
L 2.6875 47.703125 
L 2.6875 54.6875 
L 9.28125 54.6875 
L 9.28125 70.21875 
z
" id="BitstreamVeraSans-Roman-74"/>
     </defs>
     <g transform="translate(142.271875 437.0221875)rotate(-90.0)scale(0.28 -0.28)">
      <use xlink:href="#BitstreamVeraSans-Roman-61"/>
      <use x="61.279296875" xlink:href="#BitstreamVeraSans-Roman-6c"/>
      <use x="89.0625" xlink:href="#BitstreamVeraSans-Roman-69"/>
      <use x="116.845703125" xlink:href="#BitstreamVeraSans-Roman-67"/>
      <use x="180.322265625" xlink:href="#BitstreamVeraSans-Roman-6e"/>
      <use x="243.701171875" xlink:href="#BitstreamVeraSans-Roman-6d"/>
      <use x="341.11328125" xlink:href="#BitstreamVeraSans-Roman-65"/>
      <use x="402.63671875" xlink:href="#BitstreamVeraSans-Roman-6e"/>
      <use x="466.015625" xlink:href="#BitstreamVeraSans-Roman-74"/>
      <use x="505.224609375" xlink:href="#BitstreamVeraSans-Roman-20"/>
      <use x="537.01171875" xlink:href="#BitstreamVeraSans-Roman-61"/>
      <use x="598.291015625" xlink:href="#BitstreamVeraSans-Roman-63"/>
      <use x="653.271484375" xlink:href="#BitstreamVeraSans-Roman-63"/>
      <use x="708.251953125" xlink:href="#BitstreamVeraSans-Roman-75"/>
      <use x="771.630859375" xlink:href="#BitstreamVeraSans-Roman-72"/>
      <use x="812.744140625" xlink:href="#BitstreamVeraSans-Roman-61"/>
      <use x="874.0234375" xlink:href="#BitstreamVeraSans-Roman-63"/>
      <use x="929.00390625" xlink:href="#BitstreamVeraSans-Roman-79"/>
      <use x="988.18359375" xlink:href="#BitstreamVeraSans-Roman-20"/>
      <use x="1019.97070312" xlink:href="#BitstreamVeraSans-Roman-28"/>
      <use x="1058.984375" xlink:href="#BitstreamVeraSans-Roman-25"/>
      <use x="1154.00390625" xlink:href="#BitstreamVeraSans-Roman-29"/>
     </g>
    </g>
   </g>
   <g id="legend_1">
    <g id="patch_7">
     <path d="M 192.5 473.5 
L 543.785156 473.5 
L 543.785156 355.914062 
L 192.5 355.914062 
z
" style="fill:#ffffff;stroke:#000000;stroke-linejoin:miter;"/>
    </g>
    <g id="PathCollection_40">
     <path d="M 210 385.418724 
L 217.071068 378.347656 
L 210 371.276588 
L 202.928932 378.347656 
L 210 385.418724 
z
" style="fill:none;stroke:#00ffff;"/>
     <path d="M 227.5 383.231224 
L 234.571068 376.160156 
L 227.5 369.089088 
L 220.428932 376.160156 
L 227.5 383.231224 
z
" style="fill:none;stroke:#00ffff;"/>
     <path d="M 245 386.512474 
L 252.071068 379.441406 
L 245 372.370338 
L 237.928932 379.441406 
L 245 386.512474 
z
" style="fill:none;stroke:#00ffff;"/>
    </g>
    <g id="text_20">
     <!-- baseline polyphonic -->
     <defs>
      <path d="M 54.890625 33.015625 
L 54.890625 0 
L 45.90625 0 
L 45.90625 32.71875 
Q 45.90625 40.484375 42.875 44.328125 
Q 39.84375 48.1875 33.796875 48.1875 
Q 26.515625 48.1875 22.3125 43.546875 
Q 18.109375 38.921875 18.109375 30.90625 
L 18.109375 0 
L 9.078125 0 
L 9.078125 75.984375 
L 18.109375 75.984375 
L 18.109375 46.1875 
Q 21.34375 51.125 25.703125 53.5625 
Q 30.078125 56 35.796875 56 
Q 45.21875 56 50.046875 50.171875 
Q 54.890625 44.34375 54.890625 33.015625 
" id="BitstreamVeraSans-Roman-68"/>
      <path d="M 18.109375 8.203125 
L 18.109375 -20.796875 
L 9.078125 -20.796875 
L 9.078125 54.6875 
L 18.109375 54.6875 
L 18.109375 46.390625 
Q 20.953125 51.265625 25.265625 53.625 
Q 29.59375 56 35.59375 56 
Q 45.5625 56 51.78125 48.09375 
Q 58.015625 40.1875 58.015625 27.296875 
Q 58.015625 14.40625 51.78125 6.484375 
Q 45.5625 -1.421875 35.59375 -1.421875 
Q 29.59375 -1.421875 25.265625 0.953125 
Q 20.953125 3.328125 18.109375 8.203125 
M 48.6875 27.296875 
Q 48.6875 37.203125 44.609375 42.84375 
Q 40.53125 48.484375 33.40625 48.484375 
Q 26.265625 48.484375 22.1875 42.84375 
Q 18.109375 37.203125 18.109375 27.296875 
Q 18.109375 17.390625 22.1875 11.75 
Q 26.265625 6.109375 33.40625 6.109375 
Q 40.53125 6.109375 44.609375 11.75 
Q 48.6875 17.390625 48.6875 27.296875 
" id="BitstreamVeraSans-Roman-70"/>
      <path d="M 48.6875 27.296875 
Q 48.6875 37.203125 44.609375 42.84375 
Q 40.53125 48.484375 33.40625 48.484375 
Q 26.265625 48.484375 22.1875 42.84375 
Q 18.109375 37.203125 18.109375 27.296875 
Q 18.109375 17.390625 22.1875 11.75 
Q 26.265625 6.109375 33.40625 6.109375 
Q 40.53125 6.109375 44.609375 11.75 
Q 48.6875 17.390625 48.6875 27.296875 
M 18.109375 46.390625 
Q 20.953125 51.265625 25.265625 53.625 
Q 29.59375 56 35.59375 56 
Q 45.5625 56 51.78125 48.09375 
Q 58.015625 40.1875 58.015625 27.296875 
Q 58.015625 14.40625 51.78125 6.484375 
Q 45.5625 -1.421875 35.59375 -1.421875 
Q 29.59375 -1.421875 25.265625 0.953125 
Q 20.953125 3.328125 18.109375 8.203125 
L 18.109375 0 
L 9.078125 0 
L 9.078125 75.984375 
L 18.109375 75.984375 
z
" id="BitstreamVeraSans-Roman-62"/>
     </defs>
     <g transform="translate(272.5 384.91015625)scale(0.25 -0.25)">
      <use xlink:href="#BitstreamVeraSans-Roman-62"/>
      <use x="63.4765625" xlink:href="#BitstreamVeraSans-Roman-61"/>
      <use x="124.755859375" xlink:href="#BitstreamVeraSans-Roman-73"/>
      <use x="176.85546875" xlink:href="#BitstreamVeraSans-Roman-65"/>
      <use x="238.37890625" xlink:href="#BitstreamVeraSans-Roman-6c"/>
      <use x="266.162109375" xlink:href="#BitstreamVeraSans-Roman-69"/>
      <use x="293.9453125" xlink:href="#BitstreamVeraSans-Roman-6e"/>
      <use x="357.32421875" xlink:href="#BitstreamVeraSans-Roman-65"/>
      <use x="418.84765625" xlink:href="#BitstreamVeraSans-Roman-20"/>
      <use x="450.634765625" xlink:href="#BitstreamVeraSans-Roman-70"/>
      <use x="514.111328125" xlink:href="#BitstreamVeraSans-Roman-6f"/>
      <use x="575.29296875" xlink:href="#BitstreamVeraSans-Roman-6c"/>
      <use x="603.076171875" xlink:href="#BitstreamVeraSans-Roman-79"/>
      <use x="662.255859375" xlink:href="#BitstreamVeraSans-Roman-70"/>
      <use x="725.732421875" xlink:href="#BitstreamVeraSans-Roman-68"/>
      <use x="789.111328125" xlink:href="#BitstreamVeraSans-Roman-6f"/>
      <use x="850.29296875" xlink:href="#BitstreamVeraSans-Roman-6e"/>
      <use x="913.671875" xlink:href="#BitstreamVeraSans-Roman-69"/>
      <use x="941.455078125" xlink:href="#BitstreamVeraSans-Roman-63"/>
     </g>
    </g>
    <g id="PathCollection_41">
     <path d="M 210 420.042969 
L 215 415.042969 
L 210 410.042969 
L 205 415.042969 
z
" style="fill:#ff0000;stroke:#ff0000;"/>
     <path d="M 227.5 417.855469 
L 232.5 412.855469 
L 227.5 407.855469 
L 222.5 412.855469 
z
" style="fill:#ff0000;stroke:#ff0000;"/>
     <path d="M 245 421.136719 
L 250 416.136719 
L 245 411.136719 
L 240 416.136719 
z
" style="fill:#ff0000;stroke:#ff0000;"/>
    </g>
    <g id="text_21">
     <!-- proposed polyphonic -->
     <defs>
      <path d="M 45.40625 46.390625 
L 45.40625 75.984375 
L 54.390625 75.984375 
L 54.390625 0 
L 45.40625 0 
L 45.40625 8.203125 
Q 42.578125 3.328125 38.25 0.953125 
Q 33.9375 -1.421875 27.875 -1.421875 
Q 17.96875 -1.421875 11.734375 6.484375 
Q 5.515625 14.40625 5.515625 27.296875 
Q 5.515625 40.1875 11.734375 48.09375 
Q 17.96875 56 27.875 56 
Q 33.9375 56 38.25 53.625 
Q 42.578125 51.265625 45.40625 46.390625 
M 14.796875 27.296875 
Q 14.796875 17.390625 18.875 11.75 
Q 22.953125 6.109375 30.078125 6.109375 
Q 37.203125 6.109375 41.296875 11.75 
Q 45.40625 17.390625 45.40625 27.296875 
Q 45.40625 37.203125 41.296875 42.84375 
Q 37.203125 48.484375 30.078125 48.484375 
Q 22.953125 48.484375 18.875 42.84375 
Q 14.796875 37.203125 14.796875 27.296875 
" id="BitstreamVeraSans-Roman-64"/>
     </defs>
     <g transform="translate(272.5 421.60546875)scale(0.25 -0.25)">
      <use xlink:href="#BitstreamVeraSans-Roman-70"/>
      <use x="63.4765625" xlink:href="#BitstreamVeraSans-Roman-72"/>
      <use x="104.55859375" xlink:href="#BitstreamVeraSans-Roman-6f"/>
      <use x="165.740234375" xlink:href="#BitstreamVeraSans-Roman-70"/>
      <use x="229.216796875" xlink:href="#BitstreamVeraSans-Roman-6f"/>
      <use x="290.3984375" xlink:href="#BitstreamVeraSans-Roman-73"/>
      <use x="342.498046875" xlink:href="#BitstreamVeraSans-Roman-65"/>
      <use x="404.021484375" xlink:href="#BitstreamVeraSans-Roman-64"/>
      <use x="467.498046875" xlink:href="#BitstreamVeraSans-Roman-20"/>
      <use x="499.28515625" xlink:href="#BitstreamVeraSans-Roman-70"/>
      <use x="562.76171875" xlink:href="#BitstreamVeraSans-Roman-6f"/>
      <use x="623.943359375" xlink:href="#BitstreamVeraSans-Roman-6c"/>
      <use x="651.7265625" xlink:href="#BitstreamVeraSans-Roman-79"/>
      <use x="710.90625" xlink:href="#BitstreamVeraSans-Roman-70"/>
      <use x="774.3828125" xlink:href="#BitstreamVeraSans-Roman-68"/>
      <use x="837.76171875" xlink:href="#BitstreamVeraSans-Roman-6f"/>
      <use x="898.943359375" xlink:href="#BitstreamVeraSans-Roman-6e"/>
      <use x="962.322265625" xlink:href="#BitstreamVeraSans-Roman-69"/>
      <use x="990.10546875" xlink:href="#BitstreamVeraSans-Roman-63"/>
     </g>
    </g>
    <g id="PathCollection_42">
     <path d="M 210 446.494237 
L 205.012618 450.117782 
L 206.917628 455.980802 
L 213.082372 455.980802 
L 214.987382 450.117782 
L 210 446.494237 
z
" style="fill:none;stroke:#008000;"/>
     <path d="M 227.5 444.306737 
L 222.512618 447.930282 
L 224.417628 453.793302 
L 230.582372 453.793302 
L 232.487382 447.930282 
L 227.5 444.306737 
z
" style="fill:none;stroke:#008000;"/>
     <path d="M 245 447.587987 
L 240.012618 451.211532 
L 241.917628 457.074552 
L 248.082372 457.074552 
L 249.987382 451.211532 
L 245 447.587987 
z
" style="fill:none;stroke:#008000;"/>
    </g>
    <g id="text_22">
     <!-- proposed acapella -->
     <g transform="translate(272.5 458.30078125)scale(0.25 -0.25)">
      <use xlink:href="#BitstreamVeraSans-Roman-70"/>
      <use x="63.4765625" xlink:href="#BitstreamVeraSans-Roman-72"/>
      <use x="104.55859375" xlink:href="#BitstreamVeraSans-Roman-6f"/>
      <use x="165.740234375" xlink:href="#BitstreamVeraSans-Roman-70"/>
      <use x="229.216796875" xlink:href="#BitstreamVeraSans-Roman-6f"/>
      <use x="290.3984375" xlink:href="#BitstreamVeraSans-Roman-73"/>
      <use x="342.498046875" xlink:href="#BitstreamVeraSans-Roman-65"/>
      <use x="404.021484375" xlink:href="#BitstreamVeraSans-Roman-64"/>
      <use x="467.498046875" xlink:href="#BitstreamVeraSans-Roman-20"/>
      <use x="499.28515625" xlink:href="#BitstreamVeraSans-Roman-61"/>
      <use x="560.564453125" xlink:href="#BitstreamVeraSans-Roman-63"/>
      <use x="615.544921875" xlink:href="#BitstreamVeraSans-Roman-61"/>
      <use x="676.82421875" xlink:href="#BitstreamVeraSans-Roman-70"/>
      <use x="740.30078125" xlink:href="#BitstreamVeraSans-Roman-65"/>
      <use x="801.82421875" xlink:href="#BitstreamVeraSans-Roman-6c"/>
      <use x="829.607421875" xlink:href="#BitstreamVeraSans-Roman-6c"/>
      <use x="857.390625" xlink:href="#BitstreamVeraSans-Roman-61"/>
     </g>
    </g>
   </g>
  </g>
 </g>
 <defs>
  <clipPath id="p55745b0038">
   <rect height="432.0" width="1116.0" x="180.0" y="54.0"/>
  </clipPath>
 </defs>
</svg>
