<?xml version="1.0" encoding="utf-8" standalone="no"?>
<!DOCTYPE svg PUBLIC "-//W3C//DTD SVG 1.1//EN"
  "http://www.w3.org/Graphics/SVG/1.1/DTD/svg11.dtd">
<!-- Created with matplotlib (http://matplotlib.org/) -->
<svg height="540pt" version="1.1" viewBox="0 0 1440 540" width="1440pt" xmlns="http://www.w3.org/2000/svg" xmlns:xlink="http://www.w3.org/1999/xlink">
 <defs>
  <style type="text/css">
*{stroke-linecap:butt;stroke-linejoin:round;stroke-miterlimit:100000;}
  </style>
 </defs>
 <g id="figure_1">
  <g id="patch_1">
   <path d="M 0 540 
L 1440 540 
L 1440 0 
L 0 0 
z
" style="fill:#ffffff;"/>
  </g>
  <g id="axes_1">
   <g id="patch_2">
    <path d="M 180 486 
L 1296 486 
L 1296 54 
L 180 54 
z
" style="fill:#ffffff;"/>
   </g>
   <g id="PathCollection_1">
    <path clip-path="url(#pbad360f766)" d="M -4656 409.19767 
" style="fill:none;stroke:#00ffff;"/>
   </g>
   <g id="PathCollection_2">
    <defs>
     <path d="M -0 5 
L 5 0 
L 0 -5 
L -5 -0 
z
" id="m9e5e2856a7" style="stroke:#ff0000;"/>
    </defs>
    <g clip-path="url(#pbad360f766)">
     <use style="fill:#ff0000;stroke:#ff0000;" x="-4656.0" xlink:href="#m9e5e2856a7" y="147.812543104"/>
    </g>
   </g>
   <g id="PathCollection_3">
    <path clip-path="url(#pbad360f766)" d="M -4594 324.307687 
" style="fill:none;stroke:#00ffff;"/>
   </g>
   <g id="PathCollection_4">
    <g clip-path="url(#pbad360f766)">
     <use style="fill:#ff0000;stroke:#ff0000;" x="-4594.0" xlink:href="#m9e5e2856a7" y="200.519630004"/>
    </g>
   </g>
   <g id="PathCollection_5">
    <path clip-path="url(#pbad360f766)" d="M -4532 217.860886 
" style="fill:none;stroke:#00ffff;"/>
   </g>
   <g id="PathCollection_6">
    <g clip-path="url(#pbad360f766)">
     <use style="fill:#ff0000;stroke:#ff0000;" x="-4532.0" xlink:href="#m9e5e2856a7" y="226.317151303"/>
    </g>
   </g>
   <g id="PathCollection_7">
    <path clip-path="url(#pbad360f766)" d="M -4470 214.372842 
" style="fill:none;stroke:#00ffff;"/>
   </g>
   <g id="PathCollection_8">
    <g clip-path="url(#pbad360f766)">
     <use style="fill:#ff0000;stroke:#ff0000;" x="-4470.0" xlink:href="#m9e5e2856a7" y="194.913268437"/>
    </g>
   </g>
   <g id="PathCollection_9">
    <path clip-path="url(#pbad360f766)" d="M -4408 277.236285 
" style="fill:none;stroke:#00ffff;"/>
   </g>
   <g id="PathCollection_10">
    <g clip-path="url(#pbad360f766)">
     <use style="fill:#ff0000;stroke:#ff0000;" x="-4408.0" xlink:href="#m9e5e2856a7" y="173.372646363"/>
    </g>
   </g>
   <g id="PathCollection_11">
    <path clip-path="url(#pbad360f766)" d="M -4346 256.385788 
" style="fill:none;stroke:#00ffff;"/>
   </g>
   <g id="PathCollection_12">
    <g clip-path="url(#pbad360f766)">
     <use style="fill:#ff0000;stroke:#ff0000;" x="-4346.0" xlink:href="#m9e5e2856a7" y="171.049611756"/>
    </g>
   </g>
   <g id="PathCollection_13">
    <path clip-path="url(#pbad360f766)" d="M -4284 231.827244 
" style="fill:none;stroke:#00ffff;"/>
   </g>
   <g id="PathCollection_14">
    <g clip-path="url(#pbad360f766)">
     <use style="fill:#ff0000;stroke:#ff0000;" x="-4284.0" xlink:href="#m9e5e2856a7" y="221.224546017"/>
    </g>
   </g>
   <g id="PathCollection_15">
    <path clip-path="url(#pbad360f766)" d="M -4222 380.024554 
" style="fill:none;stroke:#00ffff;"/>
   </g>
   <g id="PathCollection_16">
    <g clip-path="url(#pbad360f766)">
     <use style="fill:#ff0000;stroke:#ff0000;" x="-4222.0" xlink:href="#m9e5e2856a7" y="179.715799107"/>
    </g>
   </g>
   <g id="PathCollection_17">
    <path clip-path="url(#pbad360f766)" d="M -4160 288.785307 
" style="fill:none;stroke:#00ffff;"/>
   </g>
   <g id="PathCollection_18">
    <g clip-path="url(#pbad360f766)">
     <use style="fill:#ff0000;stroke:#ff0000;" x="-4160.0" xlink:href="#m9e5e2856a7" y="237.531047055"/>
    </g>
   </g>
   <g id="PathCollection_19">
    <path clip-path="url(#pbad360f766)" d="M -4098 205.271125 
" style="fill:none;stroke:#00ffff;"/>
   </g>
   <g id="PathCollection_20">
    <g clip-path="url(#pbad360f766)">
     <use style="fill:#ff0000;stroke:#ff0000;" x="-4098.0" xlink:href="#m9e5e2856a7" y="108.26100392"/>
    </g>
   </g>
   <g id="PathCollection_21">
    <path clip-path="url(#pbad360f766)" d="M -4036 247.801894 
" style="fill:none;stroke:#00ffff;"/>
   </g>
   <g id="PathCollection_22">
    <g clip-path="url(#pbad360f766)">
     <use style="fill:#ff0000;stroke:#ff0000;" x="-4036.0" xlink:href="#m9e5e2856a7" y="287.23297848"/>
    </g>
   </g>
   <g id="PathCollection_23">
    <path clip-path="url(#pbad360f766)" d="M -3974 365.650948 
" style="fill:none;stroke:#00ffff;"/>
   </g>
   <g id="PathCollection_24">
    <g clip-path="url(#pbad360f766)">
     <use style="fill:#ff0000;stroke:#ff0000;" x="-3974.0" xlink:href="#m9e5e2856a7" y="378.580950266"/>
    </g>
   </g>
   <g id="PathCollection_25">
    <path clip-path="url(#pbad360f766)" d="M -3974 365.650948 
" style="fill:none;stroke:#00ffff;"/>
   </g>
   <g id="PathCollection_26">
    <g clip-path="url(#pbad360f766)">
     <use style="fill:#ff0000;stroke:#ff0000;" x="-3974.0" xlink:href="#m9e5e2856a7" y="378.580950266"/>
    </g>
   </g>
   <g id="line2d_1">
    <path clip-path="url(#pbad360f766)" d="M -4656 402.126602 
" style="fill:none;stroke:#000000;stroke-dasharray:1.000000,3.000000;stroke-dashoffset:0.0;"/>
   </g>
   <g id="line2d_2">
    <path clip-path="url(#pbad360f766)" d="M -4594 317.236619 
" style="fill:none;stroke:#000000;stroke-dasharray:1.000000,3.000000;stroke-dashoffset:0.0;"/>
   </g>
   <g id="line2d_3">
    <path clip-path="url(#pbad360f766)" d="M -4532 210.789819 
" style="fill:none;stroke:#000000;stroke-dasharray:1.000000,3.000000;stroke-dashoffset:0.0;"/>
   </g>
   <g id="line2d_4">
    <path clip-path="url(#pbad360f766)" d="M -4470 207.301774 
" style="fill:none;stroke:#000000;stroke-dasharray:1.000000,3.000000;stroke-dashoffset:0.0;"/>
   </g>
   <g id="line2d_5">
    <path clip-path="url(#pbad360f766)" d="M -4408 270.165218 
" style="fill:none;stroke:#000000;stroke-dasharray:1.000000,3.000000;stroke-dashoffset:0.0;"/>
   </g>
   <g id="line2d_6">
    <path clip-path="url(#pbad360f766)" d="M -4346 249.31472 
" style="fill:none;stroke:#000000;stroke-dasharray:1.000000,3.000000;stroke-dashoffset:0.0;"/>
   </g>
   <g id="line2d_7">
    <path clip-path="url(#pbad360f766)" d="M -4284 224.756176 
" style="fill:none;stroke:#000000;stroke-dasharray:1.000000,3.000000;stroke-dashoffset:0.0;"/>
   </g>
   <g id="line2d_8">
    <path clip-path="url(#pbad360f766)" d="M -4222 372.953487 
" style="fill:none;stroke:#000000;stroke-dasharray:1.000000,3.000000;stroke-dashoffset:0.0;"/>
   </g>
   <g id="line2d_9">
    <path clip-path="url(#pbad360f766)" d="M -4160 281.714239 
" style="fill:none;stroke:#000000;stroke-dasharray:1.000000,3.000000;stroke-dashoffset:0.0;"/>
   </g>
   <g id="line2d_10">
    <path clip-path="url(#pbad360f766)" d="M -4098 198.200057 
" style="fill:none;stroke:#000000;stroke-dasharray:1.000000,3.000000;stroke-dashoffset:0.0;"/>
   </g>
   <g id="line2d_11">
    <path clip-path="url(#pbad360f766)" d="M -4036 240.730826 
" style="fill:none;stroke:#000000;stroke-dasharray:1.000000,3.000000;stroke-dashoffset:0.0;"/>
   </g>
   <g id="line2d_12">
    <path clip-path="url(#pbad360f766)" d="M -3974 358.579881 
" style="fill:none;stroke:#000000;stroke-dasharray:1.000000,3.000000;stroke-dashoffset:0.0;"/>
   </g>
   <g id="patch_3">
    <path d="M 180 54 
L 1296 54 
" style="fill:none;stroke:#000000;stroke-linecap:square;stroke-linejoin:miter;"/>
   </g>
   <g id="patch_4">
    <path d="M 1296 486 
L 1296 54 
" style="fill:none;stroke:#000000;stroke-linecap:square;stroke-linejoin:miter;"/>
   </g>
   <g id="patch_5">
    <path d="M 180 486 
L 1296 486 
" style="fill:none;stroke:#000000;stroke-linecap:square;stroke-linejoin:miter;"/>
   </g>
   <g id="patch_6">
    <path d="M 180 486 
L 180 54 
" style="fill:none;stroke:#000000;stroke-linecap:square;stroke-linejoin:miter;"/>
   </g>
   <g id="matplotlib.axis_1">
    <g id="xtick_1">
     <g id="line2d_13">
      <defs>
       <path d="M 0 0 
L 0 -4 
" id="ma02fd9dba4" style="stroke:#000000;stroke-width:0.5;"/>
      </defs>
      <g>
       <use style="stroke:#000000;stroke-width:0.5;" x="180.0" xlink:href="#ma02fd9dba4" y="486.0"/>
      </g>
     </g>
     <g id="line2d_14">
      <defs>
       <path d="M 0 0 
L 0 4 
" id="mfb696fa84b" style="stroke:#000000;stroke-width:0.5;"/>
      </defs>
      <g>
       <use style="stroke:#000000;stroke-width:0.5;" x="180.0" xlink:href="#mfb696fa84b" y="54.0"/>
      </g>
     </g>
     <g id="text_1">
      <!-- 78 -->
      <defs>
       <path d="M 31.78125 34.625 
Q 24.75 34.625 20.71875 30.859375 
Q 16.703125 27.09375 16.703125 20.515625 
Q 16.703125 13.921875 20.71875 10.15625 
Q 24.75 6.390625 31.78125 6.390625 
Q 38.8125 6.390625 42.859375 10.171875 
Q 46.921875 13.96875 46.921875 20.515625 
Q 46.921875 27.09375 42.890625 30.859375 
Q 38.875 34.625 31.78125 34.625 
M 21.921875 38.8125 
Q 15.578125 40.375 12.03125 44.71875 
Q 8.5 49.078125 8.5 55.328125 
Q 8.5 64.0625 14.71875 69.140625 
Q 20.953125 74.21875 31.78125 74.21875 
Q 42.671875 74.21875 48.875 69.140625 
Q 55.078125 64.0625 55.078125 55.328125 
Q 55.078125 49.078125 51.53125 44.71875 
Q 48 40.375 41.703125 38.8125 
Q 48.828125 37.15625 52.796875 32.3125 
Q 56.78125 27.484375 56.78125 20.515625 
Q 56.78125 9.90625 50.3125 4.234375 
Q 43.84375 -1.421875 31.78125 -1.421875 
Q 19.734375 -1.421875 13.25 4.234375 
Q 6.78125 9.90625 6.78125 20.515625 
Q 6.78125 27.484375 10.78125 32.3125 
Q 14.796875 37.15625 21.921875 38.8125 
M 18.3125 54.390625 
Q 18.3125 48.734375 21.84375 45.5625 
Q 25.390625 42.390625 31.78125 42.390625 
Q 38.140625 42.390625 41.71875 45.5625 
Q 45.3125 48.734375 45.3125 54.390625 
Q 45.3125 60.0625 41.71875 63.234375 
Q 38.140625 66.40625 31.78125 66.40625 
Q 25.390625 66.40625 21.84375 63.234375 
Q 18.3125 60.0625 18.3125 54.390625 
" id="BitstreamVeraSans-Roman-38"/>
       <path d="M 8.203125 72.90625 
L 55.078125 72.90625 
L 55.078125 68.703125 
L 28.609375 0 
L 18.3125 0 
L 43.21875 64.59375 
L 8.203125 64.59375 
z
" id="BitstreamVeraSans-Roman-37"/>
      </defs>
      <g transform="translate(172.365 499.118125)scale(0.12 -0.12)">
       <use xlink:href="#BitstreamVeraSans-Roman-37"/>
       <use x="63.623046875" xlink:href="#BitstreamVeraSans-Roman-38"/>
      </g>
     </g>
    </g>
    <g id="xtick_2">
     <g id="line2d_15">
      <g>
       <use style="stroke:#000000;stroke-width:0.5;" x="304.0" xlink:href="#ma02fd9dba4" y="486.0"/>
      </g>
     </g>
     <g id="line2d_16">
      <g>
       <use style="stroke:#000000;stroke-width:0.5;" x="304.0" xlink:href="#mfb696fa84b" y="54.0"/>
      </g>
     </g>
     <g id="text_2">
      <!-- 80 -->
      <defs>
       <path d="M 31.78125 66.40625 
Q 24.171875 66.40625 20.328125 58.90625 
Q 16.5 51.421875 16.5 36.375 
Q 16.5 21.390625 20.328125 13.890625 
Q 24.171875 6.390625 31.78125 6.390625 
Q 39.453125 6.390625 43.28125 13.890625 
Q 47.125 21.390625 47.125 36.375 
Q 47.125 51.421875 43.28125 58.90625 
Q 39.453125 66.40625 31.78125 66.40625 
M 31.78125 74.21875 
Q 44.046875 74.21875 50.515625 64.515625 
Q 56.984375 54.828125 56.984375 36.375 
Q 56.984375 17.96875 50.515625 8.265625 
Q 44.046875 -1.421875 31.78125 -1.421875 
Q 19.53125 -1.421875 13.0625 8.265625 
Q 6.59375 17.96875 6.59375 36.375 
Q 6.59375 54.828125 13.0625 64.515625 
Q 19.53125 74.21875 31.78125 74.21875 
" id="BitstreamVeraSans-Roman-30"/>
      </defs>
      <g transform="translate(296.365 499.118125)scale(0.12 -0.12)">
       <use xlink:href="#BitstreamVeraSans-Roman-38"/>
       <use x="63.623046875" xlink:href="#BitstreamVeraSans-Roman-30"/>
      </g>
     </g>
    </g>
    <g id="xtick_3">
     <g id="line2d_17">
      <g>
       <use style="stroke:#000000;stroke-width:0.5;" x="428.0" xlink:href="#ma02fd9dba4" y="486.0"/>
      </g>
     </g>
     <g id="line2d_18">
      <g>
       <use style="stroke:#000000;stroke-width:0.5;" x="428.0" xlink:href="#mfb696fa84b" y="54.0"/>
      </g>
     </g>
     <g id="text_3">
      <!-- 82 -->
      <defs>
       <path d="M 19.1875 8.296875 
L 53.609375 8.296875 
L 53.609375 0 
L 7.328125 0 
L 7.328125 8.296875 
Q 12.9375 14.109375 22.625 23.890625 
Q 32.328125 33.6875 34.8125 36.53125 
Q 39.546875 41.84375 41.421875 45.53125 
Q 43.3125 49.21875 43.3125 52.78125 
Q 43.3125 58.59375 39.234375 62.25 
Q 35.15625 65.921875 28.609375 65.921875 
Q 23.96875 65.921875 18.8125 64.3125 
Q 13.671875 62.703125 7.8125 59.421875 
L 7.8125 69.390625 
Q 13.765625 71.78125 18.9375 73 
Q 24.125 74.21875 28.421875 74.21875 
Q 39.75 74.21875 46.484375 68.546875 
Q 53.21875 62.890625 53.21875 53.421875 
Q 53.21875 48.921875 51.53125 44.890625 
Q 49.859375 40.875 45.40625 35.40625 
Q 44.1875 33.984375 37.640625 27.21875 
Q 31.109375 20.453125 19.1875 8.296875 
" id="BitstreamVeraSans-Roman-32"/>
      </defs>
      <g transform="translate(420.365 499.118125)scale(0.12 -0.12)">
       <use xlink:href="#BitstreamVeraSans-Roman-38"/>
       <use x="63.623046875" xlink:href="#BitstreamVeraSans-Roman-32"/>
      </g>
     </g>
    </g>
    <g id="xtick_4">
     <g id="line2d_19">
      <g>
       <use style="stroke:#000000;stroke-width:0.5;" x="552.0" xlink:href="#ma02fd9dba4" y="486.0"/>
      </g>
     </g>
     <g id="line2d_20">
      <g>
       <use style="stroke:#000000;stroke-width:0.5;" x="552.0" xlink:href="#mfb696fa84b" y="54.0"/>
      </g>
     </g>
     <g id="text_4">
      <!-- 84 -->
      <defs>
       <path d="M 37.796875 64.3125 
L 12.890625 25.390625 
L 37.796875 25.390625 
z
M 35.203125 72.90625 
L 47.609375 72.90625 
L 47.609375 25.390625 
L 58.015625 25.390625 
L 58.015625 17.1875 
L 47.609375 17.1875 
L 47.609375 0 
L 37.796875 0 
L 37.796875 17.1875 
L 4.890625 17.1875 
L 4.890625 26.703125 
z
" id="BitstreamVeraSans-Roman-34"/>
      </defs>
      <g transform="translate(544.365 499.118125)scale(0.12 -0.12)">
       <use xlink:href="#BitstreamVeraSans-Roman-38"/>
       <use x="63.623046875" xlink:href="#BitstreamVeraSans-Roman-34"/>
      </g>
     </g>
    </g>
    <g id="xtick_5">
     <g id="line2d_21">
      <g>
       <use style="stroke:#000000;stroke-width:0.5;" x="676.0" xlink:href="#ma02fd9dba4" y="486.0"/>
      </g>
     </g>
     <g id="line2d_22">
      <g>
       <use style="stroke:#000000;stroke-width:0.5;" x="676.0" xlink:href="#mfb696fa84b" y="54.0"/>
      </g>
     </g>
     <g id="text_5">
      <!-- 86 -->
      <defs>
       <path d="M 33.015625 40.375 
Q 26.375 40.375 22.484375 35.828125 
Q 18.609375 31.296875 18.609375 23.390625 
Q 18.609375 15.53125 22.484375 10.953125 
Q 26.375 6.390625 33.015625 6.390625 
Q 39.65625 6.390625 43.53125 10.953125 
Q 47.40625 15.53125 47.40625 23.390625 
Q 47.40625 31.296875 43.53125 35.828125 
Q 39.65625 40.375 33.015625 40.375 
M 52.59375 71.296875 
L 52.59375 62.3125 
Q 48.875 64.0625 45.09375 64.984375 
Q 41.3125 65.921875 37.59375 65.921875 
Q 27.828125 65.921875 22.671875 59.328125 
Q 17.53125 52.734375 16.796875 39.40625 
Q 19.671875 43.65625 24.015625 45.921875 
Q 28.375 48.1875 33.59375 48.1875 
Q 44.578125 48.1875 50.953125 41.515625 
Q 57.328125 34.859375 57.328125 23.390625 
Q 57.328125 12.15625 50.6875 5.359375 
Q 44.046875 -1.421875 33.015625 -1.421875 
Q 20.359375 -1.421875 13.671875 8.265625 
Q 6.984375 17.96875 6.984375 36.375 
Q 6.984375 53.65625 15.1875 63.9375 
Q 23.390625 74.21875 37.203125 74.21875 
Q 40.921875 74.21875 44.703125 73.484375 
Q 48.484375 72.75 52.59375 71.296875 
" id="BitstreamVeraSans-Roman-36"/>
      </defs>
      <g transform="translate(668.365 499.118125)scale(0.12 -0.12)">
       <use xlink:href="#BitstreamVeraSans-Roman-38"/>
       <use x="63.623046875" xlink:href="#BitstreamVeraSans-Roman-36"/>
      </g>
     </g>
    </g>
    <g id="xtick_6">
     <g id="line2d_23">
      <g>
       <use style="stroke:#000000;stroke-width:0.5;" x="800.0" xlink:href="#ma02fd9dba4" y="486.0"/>
      </g>
     </g>
     <g id="line2d_24">
      <g>
       <use style="stroke:#000000;stroke-width:0.5;" x="800.0" xlink:href="#mfb696fa84b" y="54.0"/>
      </g>
     </g>
     <g id="text_6">
      <!-- 88 -->
      <g transform="translate(792.365 499.118125)scale(0.12 -0.12)">
       <use xlink:href="#BitstreamVeraSans-Roman-38"/>
       <use x="63.623046875" xlink:href="#BitstreamVeraSans-Roman-38"/>
      </g>
     </g>
    </g>
    <g id="xtick_7">
     <g id="line2d_25">
      <g>
       <use style="stroke:#000000;stroke-width:0.5;" x="924.0" xlink:href="#ma02fd9dba4" y="486.0"/>
      </g>
     </g>
     <g id="line2d_26">
      <g>
       <use style="stroke:#000000;stroke-width:0.5;" x="924.0" xlink:href="#mfb696fa84b" y="54.0"/>
      </g>
     </g>
     <g id="text_7">
      <!-- 90 -->
      <defs>
       <path d="M 10.984375 1.515625 
L 10.984375 10.5 
Q 14.703125 8.734375 18.5 7.8125 
Q 22.3125 6.890625 25.984375 6.890625 
Q 35.75 6.890625 40.890625 13.453125 
Q 46.046875 20.015625 46.78125 33.40625 
Q 43.953125 29.203125 39.59375 26.953125 
Q 35.25 24.703125 29.984375 24.703125 
Q 19.046875 24.703125 12.671875 31.3125 
Q 6.296875 37.9375 6.296875 49.421875 
Q 6.296875 60.640625 12.9375 67.421875 
Q 19.578125 74.21875 30.609375 74.21875 
Q 43.265625 74.21875 49.921875 64.515625 
Q 56.59375 54.828125 56.59375 36.375 
Q 56.59375 19.140625 48.40625 8.859375 
Q 40.234375 -1.421875 26.421875 -1.421875 
Q 22.703125 -1.421875 18.890625 -0.6875 
Q 15.09375 0.046875 10.984375 1.515625 
M 30.609375 32.421875 
Q 37.25 32.421875 41.125 36.953125 
Q 45.015625 41.5 45.015625 49.421875 
Q 45.015625 57.28125 41.125 61.84375 
Q 37.25 66.40625 30.609375 66.40625 
Q 23.96875 66.40625 20.09375 61.84375 
Q 16.21875 57.28125 16.21875 49.421875 
Q 16.21875 41.5 20.09375 36.953125 
Q 23.96875 32.421875 30.609375 32.421875 
" id="BitstreamVeraSans-Roman-39"/>
      </defs>
      <g transform="translate(916.365 499.118125)scale(0.12 -0.12)">
       <use xlink:href="#BitstreamVeraSans-Roman-39"/>
       <use x="63.623046875" xlink:href="#BitstreamVeraSans-Roman-30"/>
      </g>
     </g>
    </g>
    <g id="xtick_8">
     <g id="line2d_27">
      <g>
       <use style="stroke:#000000;stroke-width:0.5;" x="1048.0" xlink:href="#ma02fd9dba4" y="486.0"/>
      </g>
     </g>
     <g id="line2d_28">
      <g>
       <use style="stroke:#000000;stroke-width:0.5;" x="1048.0" xlink:href="#mfb696fa84b" y="54.0"/>
      </g>
     </g>
     <g id="text_8">
      <!-- 92 -->
      <g transform="translate(1040.365 499.118125)scale(0.12 -0.12)">
       <use xlink:href="#BitstreamVeraSans-Roman-39"/>
       <use x="63.623046875" xlink:href="#BitstreamVeraSans-Roman-32"/>
      </g>
     </g>
    </g>
    <g id="xtick_9">
     <g id="line2d_29">
      <g>
       <use style="stroke:#000000;stroke-width:0.5;" x="1172.0" xlink:href="#ma02fd9dba4" y="486.0"/>
      </g>
     </g>
     <g id="line2d_30">
      <g>
       <use style="stroke:#000000;stroke-width:0.5;" x="1172.0" xlink:href="#mfb696fa84b" y="54.0"/>
      </g>
     </g>
     <g id="text_9">
      <!-- 94 -->
      <g transform="translate(1164.365 499.118125)scale(0.12 -0.12)">
       <use xlink:href="#BitstreamVeraSans-Roman-39"/>
       <use x="63.623046875" xlink:href="#BitstreamVeraSans-Roman-34"/>
      </g>
     </g>
    </g>
    <g id="xtick_10">
     <g id="line2d_31">
      <g>
       <use style="stroke:#000000;stroke-width:0.5;" x="1296.0" xlink:href="#ma02fd9dba4" y="486.0"/>
      </g>
     </g>
     <g id="line2d_32">
      <g>
       <use style="stroke:#000000;stroke-width:0.5;" x="1296.0" xlink:href="#mfb696fa84b" y="54.0"/>
      </g>
     </g>
     <g id="text_10">
      <!-- 96 -->
      <g transform="translate(1288.365 499.118125)scale(0.12 -0.12)">
       <use xlink:href="#BitstreamVeraSans-Roman-39"/>
       <use x="63.623046875" xlink:href="#BitstreamVeraSans-Roman-36"/>
      </g>
     </g>
    </g>
    <g id="text_11">
     <!-- number of recording (%) -->
     <defs>
      <path id="BitstreamVeraSans-Roman-20"/>
      <path d="M 37.109375 75.984375 
L 37.109375 68.5 
L 28.515625 68.5 
Q 23.6875 68.5 21.796875 66.546875 
Q 19.921875 64.59375 19.921875 59.515625 
L 19.921875 54.6875 
L 34.71875 54.6875 
L 34.71875 47.703125 
L 19.921875 47.703125 
L 19.921875 0 
L 10.890625 0 
L 10.890625 47.703125 
L 2.296875 47.703125 
L 2.296875 54.6875 
L 10.890625 54.6875 
L 10.890625 58.5 
Q 10.890625 67.625 15.140625 71.796875 
Q 19.390625 75.984375 28.609375 75.984375 
z
" id="BitstreamVeraSans-Roman-66"/>
      <path d="M 72.703125 32.078125 
Q 68.453125 32.078125 66.03125 28.46875 
Q 63.625 24.859375 63.625 18.40625 
Q 63.625 12.0625 66.03125 8.421875 
Q 68.453125 4.78125 72.703125 4.78125 
Q 76.859375 4.78125 79.265625 8.421875 
Q 81.6875 12.0625 81.6875 18.40625 
Q 81.6875 24.8125 79.265625 28.4375 
Q 76.859375 32.078125 72.703125 32.078125 
M 72.703125 38.28125 
Q 80.421875 38.28125 84.953125 32.90625 
Q 89.5 27.546875 89.5 18.40625 
Q 89.5 9.28125 84.9375 3.921875 
Q 80.375 -1.421875 72.703125 -1.421875 
Q 64.890625 -1.421875 60.34375 3.921875 
Q 55.8125 9.28125 55.8125 18.40625 
Q 55.8125 27.59375 60.375 32.9375 
Q 64.9375 38.28125 72.703125 38.28125 
M 22.3125 68.015625 
Q 18.109375 68.015625 15.6875 64.375 
Q 13.28125 60.75 13.28125 54.390625 
Q 13.28125 47.953125 15.671875 44.328125 
Q 18.0625 40.71875 22.3125 40.71875 
Q 26.5625 40.71875 28.96875 44.328125 
Q 31.390625 47.953125 31.390625 54.390625 
Q 31.390625 60.6875 28.953125 64.34375 
Q 26.515625 68.015625 22.3125 68.015625 
M 66.40625 74.21875 
L 74.21875 74.21875 
L 28.609375 -1.421875 
L 20.796875 -1.421875 
z
M 22.3125 74.21875 
Q 30.03125 74.21875 34.609375 68.875 
Q 39.203125 63.53125 39.203125 54.390625 
Q 39.203125 45.171875 34.640625 39.84375 
Q 30.078125 34.515625 22.3125 34.515625 
Q 14.546875 34.515625 10.03125 39.859375 
Q 5.515625 45.21875 5.515625 54.390625 
Q 5.515625 63.484375 10.046875 68.84375 
Q 14.59375 74.21875 22.3125 74.21875 
" id="BitstreamVeraSans-Roman-25"/>
      <path d="M 54.890625 33.015625 
L 54.890625 0 
L 45.90625 0 
L 45.90625 32.71875 
Q 45.90625 40.484375 42.875 44.328125 
Q 39.84375 48.1875 33.796875 48.1875 
Q 26.515625 48.1875 22.3125 43.546875 
Q 18.109375 38.921875 18.109375 30.90625 
L 18.109375 0 
L 9.078125 0 
L 9.078125 54.6875 
L 18.109375 54.6875 
L 18.109375 46.1875 
Q 21.34375 51.125 25.703125 53.5625 
Q 30.078125 56 35.796875 56 
Q 45.21875 56 50.046875 50.171875 
Q 54.890625 44.34375 54.890625 33.015625 
" id="BitstreamVeraSans-Roman-6e"/>
      <path d="M 52 44.1875 
Q 55.375 50.25 60.0625 53.125 
Q 64.75 56 71.09375 56 
Q 79.640625 56 84.28125 50.015625 
Q 88.921875 44.046875 88.921875 33.015625 
L 88.921875 0 
L 79.890625 0 
L 79.890625 32.71875 
Q 79.890625 40.578125 77.09375 44.375 
Q 74.3125 48.1875 68.609375 48.1875 
Q 61.625 48.1875 57.5625 43.546875 
Q 53.515625 38.921875 53.515625 30.90625 
L 53.515625 0 
L 44.484375 0 
L 44.484375 32.71875 
Q 44.484375 40.625 41.703125 44.40625 
Q 38.921875 48.1875 33.109375 48.1875 
Q 26.21875 48.1875 22.15625 43.53125 
Q 18.109375 38.875 18.109375 30.90625 
L 18.109375 0 
L 9.078125 0 
L 9.078125 54.6875 
L 18.109375 54.6875 
L 18.109375 46.1875 
Q 21.1875 51.21875 25.484375 53.609375 
Q 29.78125 56 35.6875 56 
Q 41.65625 56 45.828125 52.96875 
Q 50 49.953125 52 44.1875 
" id="BitstreamVeraSans-Roman-6d"/>
      <path d="M 30.609375 48.390625 
Q 23.390625 48.390625 19.1875 42.75 
Q 14.984375 37.109375 14.984375 27.296875 
Q 14.984375 17.484375 19.15625 11.84375 
Q 23.34375 6.203125 30.609375 6.203125 
Q 37.796875 6.203125 41.984375 11.859375 
Q 46.1875 17.53125 46.1875 27.296875 
Q 46.1875 37.015625 41.984375 42.703125 
Q 37.796875 48.390625 30.609375 48.390625 
M 30.609375 56 
Q 42.328125 56 49.015625 48.375 
Q 55.71875 40.765625 55.71875 27.296875 
Q 55.71875 13.875 49.015625 6.21875 
Q 42.328125 -1.421875 30.609375 -1.421875 
Q 18.84375 -1.421875 12.171875 6.21875 
Q 5.515625 13.875 5.515625 27.296875 
Q 5.515625 40.765625 12.171875 48.375 
Q 18.84375 56 30.609375 56 
" id="BitstreamVeraSans-Roman-6f"/>
      <path d="M 8.015625 75.875 
L 15.828125 75.875 
Q 23.140625 64.359375 26.78125 53.3125 
Q 30.421875 42.28125 30.421875 31.390625 
Q 30.421875 20.453125 26.78125 9.375 
Q 23.140625 -1.703125 15.828125 -13.1875 
L 8.015625 -13.1875 
Q 14.5 -2 17.703125 9.0625 
Q 20.90625 20.125 20.90625 31.390625 
Q 20.90625 42.671875 17.703125 53.65625 
Q 14.5 64.65625 8.015625 75.875 
" id="BitstreamVeraSans-Roman-29"/>
      <path d="M 9.421875 54.6875 
L 18.40625 54.6875 
L 18.40625 0 
L 9.421875 0 
z
M 9.421875 75.984375 
L 18.40625 75.984375 
L 18.40625 64.59375 
L 9.421875 64.59375 
z
" id="BitstreamVeraSans-Roman-69"/>
      <path d="M 31 75.875 
Q 24.46875 64.65625 21.28125 53.65625 
Q 18.109375 42.671875 18.109375 31.390625 
Q 18.109375 20.125 21.3125 9.0625 
Q 24.515625 -2 31 -13.1875 
L 23.1875 -13.1875 
Q 15.875 -1.703125 12.234375 9.375 
Q 8.59375 20.453125 8.59375 31.390625 
Q 8.59375 42.28125 12.203125 53.3125 
Q 15.828125 64.359375 23.1875 75.875 
z
" id="BitstreamVeraSans-Roman-28"/>
      <path d="M 56.203125 29.59375 
L 56.203125 25.203125 
L 14.890625 25.203125 
Q 15.484375 15.921875 20.484375 11.0625 
Q 25.484375 6.203125 34.421875 6.203125 
Q 39.59375 6.203125 44.453125 7.46875 
Q 49.3125 8.734375 54.109375 11.28125 
L 54.109375 2.78125 
Q 49.265625 0.734375 44.1875 -0.34375 
Q 39.109375 -1.421875 33.890625 -1.421875 
Q 20.796875 -1.421875 13.15625 6.1875 
Q 5.515625 13.8125 5.515625 26.8125 
Q 5.515625 40.234375 12.765625 48.109375 
Q 20.015625 56 32.328125 56 
Q 43.359375 56 49.78125 48.890625 
Q 56.203125 41.796875 56.203125 29.59375 
M 47.21875 32.234375 
Q 47.125 39.59375 43.09375 43.984375 
Q 39.0625 48.390625 32.421875 48.390625 
Q 24.90625 48.390625 20.390625 44.140625 
Q 15.875 39.890625 15.1875 32.171875 
z
" id="BitstreamVeraSans-Roman-65"/>
      <path d="M 45.40625 46.390625 
L 45.40625 75.984375 
L 54.390625 75.984375 
L 54.390625 0 
L 45.40625 0 
L 45.40625 8.203125 
Q 42.578125 3.328125 38.25 0.953125 
Q 33.9375 -1.421875 27.875 -1.421875 
Q 17.96875 -1.421875 11.734375 6.484375 
Q 5.515625 14.40625 5.515625 27.296875 
Q 5.515625 40.1875 11.734375 48.09375 
Q 17.96875 56 27.875 56 
Q 33.9375 56 38.25 53.625 
Q 42.578125 51.265625 45.40625 46.390625 
M 14.796875 27.296875 
Q 14.796875 17.390625 18.875 11.75 
Q 22.953125 6.109375 30.078125 6.109375 
Q 37.203125 6.109375 41.296875 11.75 
Q 45.40625 17.390625 45.40625 27.296875 
Q 45.40625 37.203125 41.296875 42.84375 
Q 37.203125 48.484375 30.078125 48.484375 
Q 22.953125 48.484375 18.875 42.84375 
Q 14.796875 37.203125 14.796875 27.296875 
" id="BitstreamVeraSans-Roman-64"/>
      <path d="M 45.40625 27.984375 
Q 45.40625 37.75 41.375 43.109375 
Q 37.359375 48.484375 30.078125 48.484375 
Q 22.859375 48.484375 18.828125 43.109375 
Q 14.796875 37.75 14.796875 27.984375 
Q 14.796875 18.265625 18.828125 12.890625 
Q 22.859375 7.515625 30.078125 7.515625 
Q 37.359375 7.515625 41.375 12.890625 
Q 45.40625 18.265625 45.40625 27.984375 
M 54.390625 6.78125 
Q 54.390625 -7.171875 48.1875 -13.984375 
Q 42 -20.796875 29.203125 -20.796875 
Q 24.46875 -20.796875 20.265625 -20.09375 
Q 16.0625 -19.390625 12.109375 -17.921875 
L 12.109375 -9.1875 
Q 16.0625 -11.328125 19.921875 -12.34375 
Q 23.78125 -13.375 27.78125 -13.375 
Q 36.625 -13.375 41.015625 -8.765625 
Q 45.40625 -4.15625 45.40625 5.171875 
L 45.40625 9.625 
Q 42.625 4.78125 38.28125 2.390625 
Q 33.9375 0 27.875 0 
Q 17.828125 0 11.671875 7.65625 
Q 5.515625 15.328125 5.515625 27.984375 
Q 5.515625 40.671875 11.671875 48.328125 
Q 17.828125 56 27.875 56 
Q 33.9375 56 38.28125 53.609375 
Q 42.625 51.21875 45.40625 46.390625 
L 45.40625 54.6875 
L 54.390625 54.6875 
z
" id="BitstreamVeraSans-Roman-67"/>
      <path d="M 8.5 21.578125 
L 8.5 54.6875 
L 17.484375 54.6875 
L 17.484375 21.921875 
Q 17.484375 14.15625 20.5 10.265625 
Q 23.53125 6.390625 29.59375 6.390625 
Q 36.859375 6.390625 41.078125 11.03125 
Q 45.3125 15.671875 45.3125 23.6875 
L 45.3125 54.6875 
L 54.296875 54.6875 
L 54.296875 0 
L 45.3125 0 
L 45.3125 8.40625 
Q 42.046875 3.421875 37.71875 1 
Q 33.40625 -1.421875 27.6875 -1.421875 
Q 18.265625 -1.421875 13.375 4.4375 
Q 8.5 10.296875 8.5 21.578125 
" id="BitstreamVeraSans-Roman-75"/>
      <path d="M 41.109375 46.296875 
Q 39.59375 47.171875 37.8125 47.578125 
Q 36.03125 48 33.890625 48 
Q 26.265625 48 22.1875 43.046875 
Q 18.109375 38.09375 18.109375 28.8125 
L 18.109375 0 
L 9.078125 0 
L 9.078125 54.6875 
L 18.109375 54.6875 
L 18.109375 46.1875 
Q 20.953125 51.171875 25.484375 53.578125 
Q 30.03125 56 36.53125 56 
Q 37.453125 56 38.578125 55.875 
Q 39.703125 55.765625 41.0625 55.515625 
z
" id="BitstreamVeraSans-Roman-72"/>
      <path d="M 48.78125 52.59375 
L 48.78125 44.1875 
Q 44.96875 46.296875 41.140625 47.34375 
Q 37.3125 48.390625 33.40625 48.390625 
Q 24.65625 48.390625 19.8125 42.84375 
Q 14.984375 37.3125 14.984375 27.296875 
Q 14.984375 17.28125 19.8125 11.734375 
Q 24.65625 6.203125 33.40625 6.203125 
Q 37.3125 6.203125 41.140625 7.25 
Q 44.96875 8.296875 48.78125 10.40625 
L 48.78125 2.09375 
Q 45.015625 0.34375 40.984375 -0.53125 
Q 36.96875 -1.421875 32.421875 -1.421875 
Q 20.0625 -1.421875 12.78125 6.34375 
Q 5.515625 14.109375 5.515625 27.296875 
Q 5.515625 40.671875 12.859375 48.328125 
Q 20.21875 56 33.015625 56 
Q 37.15625 56 41.109375 55.140625 
Q 45.0625 54.296875 48.78125 52.59375 
" id="BitstreamVeraSans-Roman-63"/>
      <path d="M 48.6875 27.296875 
Q 48.6875 37.203125 44.609375 42.84375 
Q 40.53125 48.484375 33.40625 48.484375 
Q 26.265625 48.484375 22.1875 42.84375 
Q 18.109375 37.203125 18.109375 27.296875 
Q 18.109375 17.390625 22.1875 11.75 
Q 26.265625 6.109375 33.40625 6.109375 
Q 40.53125 6.109375 44.609375 11.75 
Q 48.6875 17.390625 48.6875 27.296875 
M 18.109375 46.390625 
Q 20.953125 51.265625 25.265625 53.625 
Q 29.59375 56 35.59375 56 
Q 45.5625 56 51.78125 48.09375 
Q 58.015625 40.1875 58.015625 27.296875 
Q 58.015625 14.40625 51.78125 6.484375 
Q 45.5625 -1.421875 35.59375 -1.421875 
Q 29.59375 -1.421875 25.265625 0.953125 
Q 20.953125 3.328125 18.109375 8.203125 
L 18.109375 0 
L 9.078125 0 
L 9.078125 75.984375 
L 18.109375 75.984375 
z
" id="BitstreamVeraSans-Roman-62"/>
     </defs>
     <g transform="translate(565.37125 527.889375)scale(0.28 -0.28)">
      <use xlink:href="#BitstreamVeraSans-Roman-6e"/>
      <use x="63.37890625" xlink:href="#BitstreamVeraSans-Roman-75"/>
      <use x="126.7578125" xlink:href="#BitstreamVeraSans-Roman-6d"/>
      <use x="224.169921875" xlink:href="#BitstreamVeraSans-Roman-62"/>
      <use x="287.646484375" xlink:href="#BitstreamVeraSans-Roman-65"/>
      <use x="349.169921875" xlink:href="#BitstreamVeraSans-Roman-72"/>
      <use x="390.283203125" xlink:href="#BitstreamVeraSans-Roman-20"/>
      <use x="422.0703125" xlink:href="#BitstreamVeraSans-Roman-6f"/>
      <use x="483.251953125" xlink:href="#BitstreamVeraSans-Roman-66"/>
      <use x="518.45703125" xlink:href="#BitstreamVeraSans-Roman-20"/>
      <use x="550.244140625" xlink:href="#BitstreamVeraSans-Roman-72"/>
      <use x="591.326171875" xlink:href="#BitstreamVeraSans-Roman-65"/>
      <use x="652.849609375" xlink:href="#BitstreamVeraSans-Roman-63"/>
      <use x="707.830078125" xlink:href="#BitstreamVeraSans-Roman-6f"/>
      <use x="769.01171875" xlink:href="#BitstreamVeraSans-Roman-72"/>
      <use x="810.109375" xlink:href="#BitstreamVeraSans-Roman-64"/>
      <use x="873.5859375" xlink:href="#BitstreamVeraSans-Roman-69"/>
      <use x="901.369140625" xlink:href="#BitstreamVeraSans-Roman-6e"/>
      <use x="964.748046875" xlink:href="#BitstreamVeraSans-Roman-67"/>
      <use x="1028.22460938" xlink:href="#BitstreamVeraSans-Roman-20"/>
      <use x="1060.01171875" xlink:href="#BitstreamVeraSans-Roman-28"/>
      <use x="1099.02539062" xlink:href="#BitstreamVeraSans-Roman-25"/>
      <use x="1194.04492188" xlink:href="#BitstreamVeraSans-Roman-29"/>
     </g>
    </g>
   </g>
   <g id="matplotlib.axis_2">
    <g id="ytick_1">
     <g id="line2d_33">
      <path clip-path="url(#pbad360f766)" d="M 180 486 
L 1296 486 
" style="fill:none;stroke:#000000;stroke-dasharray:1.000000,3.000000;stroke-dashoffset:0.0;stroke-width:0.5;"/>
     </g>
     <g id="line2d_34">
      <defs>
       <path d="M 0 0 
L 4 0 
" id="mc67c907d55" style="stroke:#000000;stroke-width:0.5;"/>
      </defs>
      <g>
       <use style="stroke:#000000;stroke-width:0.5;" x="180.0" xlink:href="#mc67c907d55" y="486.0"/>
      </g>
     </g>
     <g id="line2d_35">
      <defs>
       <path d="M 0 0 
L -4 0 
" id="m122b1d40fc" style="stroke:#000000;stroke-width:0.5;"/>
      </defs>
      <g>
       <use style="stroke:#000000;stroke-width:0.5;" x="1296.0" xlink:href="#m122b1d40fc" y="486.0"/>
      </g>
     </g>
     <g id="text_12">
      <!-- 40 -->
      <g transform="translate(160.73 489.31125)scale(0.12 -0.12)">
       <use xlink:href="#BitstreamVeraSans-Roman-34"/>
       <use x="63.623046875" xlink:href="#BitstreamVeraSans-Roman-30"/>
      </g>
     </g>
    </g>
    <g id="ytick_2">
     <g id="line2d_36">
      <path clip-path="url(#pbad360f766)" d="M 180 414 
L 1296 414 
" style="fill:none;stroke:#000000;stroke-dasharray:1.000000,3.000000;stroke-dashoffset:0.0;stroke-width:0.5;"/>
     </g>
     <g id="line2d_37">
      <g>
       <use style="stroke:#000000;stroke-width:0.5;" x="180.0" xlink:href="#mc67c907d55" y="414.0"/>
      </g>
     </g>
     <g id="line2d_38">
      <g>
       <use style="stroke:#000000;stroke-width:0.5;" x="1296.0" xlink:href="#m122b1d40fc" y="414.0"/>
      </g>
     </g>
     <g id="text_13">
      <!-- 50 -->
      <defs>
       <path d="M 10.796875 72.90625 
L 49.515625 72.90625 
L 49.515625 64.59375 
L 19.828125 64.59375 
L 19.828125 46.734375 
Q 21.96875 47.46875 24.109375 47.828125 
Q 26.265625 48.1875 28.421875 48.1875 
Q 40.625 48.1875 47.75 41.5 
Q 54.890625 34.8125 54.890625 23.390625 
Q 54.890625 11.625 47.5625 5.09375 
Q 40.234375 -1.421875 26.90625 -1.421875 
Q 22.3125 -1.421875 17.546875 -0.640625 
Q 12.796875 0.140625 7.71875 1.703125 
L 7.71875 11.625 
Q 12.109375 9.234375 16.796875 8.0625 
Q 21.484375 6.890625 26.703125 6.890625 
Q 35.15625 6.890625 40.078125 11.328125 
Q 45.015625 15.765625 45.015625 23.390625 
Q 45.015625 31 40.078125 35.4375 
Q 35.15625 39.890625 26.703125 39.890625 
Q 22.75 39.890625 18.8125 39.015625 
Q 14.890625 38.140625 10.796875 36.28125 
z
" id="BitstreamVeraSans-Roman-35"/>
      </defs>
      <g transform="translate(160.73 417.31125)scale(0.12 -0.12)">
       <use xlink:href="#BitstreamVeraSans-Roman-35"/>
       <use x="63.623046875" xlink:href="#BitstreamVeraSans-Roman-30"/>
      </g>
     </g>
    </g>
    <g id="ytick_3">
     <g id="line2d_39">
      <path clip-path="url(#pbad360f766)" d="M 180 342 
L 1296 342 
" style="fill:none;stroke:#000000;stroke-dasharray:1.000000,3.000000;stroke-dashoffset:0.0;stroke-width:0.5;"/>
     </g>
     <g id="line2d_40">
      <g>
       <use style="stroke:#000000;stroke-width:0.5;" x="180.0" xlink:href="#mc67c907d55" y="342.0"/>
      </g>
     </g>
     <g id="line2d_41">
      <g>
       <use style="stroke:#000000;stroke-width:0.5;" x="1296.0" xlink:href="#m122b1d40fc" y="342.0"/>
      </g>
     </g>
     <g id="text_14">
      <!-- 60 -->
      <g transform="translate(160.73 345.31125)scale(0.12 -0.12)">
       <use xlink:href="#BitstreamVeraSans-Roman-36"/>
       <use x="63.623046875" xlink:href="#BitstreamVeraSans-Roman-30"/>
      </g>
     </g>
    </g>
    <g id="ytick_4">
     <g id="line2d_42">
      <path clip-path="url(#pbad360f766)" d="M 180 270 
L 1296 270 
" style="fill:none;stroke:#000000;stroke-dasharray:1.000000,3.000000;stroke-dashoffset:0.0;stroke-width:0.5;"/>
     </g>
     <g id="line2d_43">
      <g>
       <use style="stroke:#000000;stroke-width:0.5;" x="180.0" xlink:href="#mc67c907d55" y="270.0"/>
      </g>
     </g>
     <g id="line2d_44">
      <g>
       <use style="stroke:#000000;stroke-width:0.5;" x="1296.0" xlink:href="#m122b1d40fc" y="270.0"/>
      </g>
     </g>
     <g id="text_15">
      <!-- 70 -->
      <g transform="translate(160.73 273.31125)scale(0.12 -0.12)">
       <use xlink:href="#BitstreamVeraSans-Roman-37"/>
       <use x="63.623046875" xlink:href="#BitstreamVeraSans-Roman-30"/>
      </g>
     </g>
    </g>
    <g id="ytick_5">
     <g id="line2d_45">
      <path clip-path="url(#pbad360f766)" d="M 180 198 
L 1296 198 
" style="fill:none;stroke:#000000;stroke-dasharray:1.000000,3.000000;stroke-dashoffset:0.0;stroke-width:0.5;"/>
     </g>
     <g id="line2d_46">
      <g>
       <use style="stroke:#000000;stroke-width:0.5;" x="180.0" xlink:href="#mc67c907d55" y="198.0"/>
      </g>
     </g>
     <g id="line2d_47">
      <g>
       <use style="stroke:#000000;stroke-width:0.5;" x="1296.0" xlink:href="#m122b1d40fc" y="198.0"/>
      </g>
     </g>
     <g id="text_16">
      <!-- 80 -->
      <g transform="translate(160.73 201.31125)scale(0.12 -0.12)">
       <use xlink:href="#BitstreamVeraSans-Roman-38"/>
       <use x="63.623046875" xlink:href="#BitstreamVeraSans-Roman-30"/>
      </g>
     </g>
    </g>
    <g id="ytick_6">
     <g id="line2d_48">
      <path clip-path="url(#pbad360f766)" d="M 180 126 
L 1296 126 
" style="fill:none;stroke:#000000;stroke-dasharray:1.000000,3.000000;stroke-dashoffset:0.0;stroke-width:0.5;"/>
     </g>
     <g id="line2d_49">
      <g>
       <use style="stroke:#000000;stroke-width:0.5;" x="180.0" xlink:href="#mc67c907d55" y="126.0"/>
      </g>
     </g>
     <g id="line2d_50">
      <g>
       <use style="stroke:#000000;stroke-width:0.5;" x="1296.0" xlink:href="#m122b1d40fc" y="126.0"/>
      </g>
     </g>
     <g id="text_17">
      <!-- 90 -->
      <g transform="translate(160.73 129.31125)scale(0.12 -0.12)">
       <use xlink:href="#BitstreamVeraSans-Roman-39"/>
       <use x="63.623046875" xlink:href="#BitstreamVeraSans-Roman-30"/>
      </g>
     </g>
    </g>
    <g id="ytick_7">
     <g id="line2d_51">
      <path clip-path="url(#pbad360f766)" d="M 180 54 
L 1296 54 
" style="fill:none;stroke:#000000;stroke-dasharray:1.000000,3.000000;stroke-dashoffset:0.0;stroke-width:0.5;"/>
     </g>
     <g id="line2d_52">
      <g>
       <use style="stroke:#000000;stroke-width:0.5;" x="180.0" xlink:href="#mc67c907d55" y="54.0"/>
      </g>
     </g>
     <g id="line2d_53">
      <g>
       <use style="stroke:#000000;stroke-width:0.5;" x="1296.0" xlink:href="#m122b1d40fc" y="54.0"/>
      </g>
     </g>
     <g id="text_18">
      <!-- 100 -->
      <defs>
       <path d="M 12.40625 8.296875 
L 28.515625 8.296875 
L 28.515625 63.921875 
L 10.984375 60.40625 
L 10.984375 69.390625 
L 28.421875 72.90625 
L 38.28125 72.90625 
L 38.28125 8.296875 
L 54.390625 8.296875 
L 54.390625 0 
L 12.40625 0 
z
" id="BitstreamVeraSans-Roman-31"/>
      </defs>
      <g transform="translate(153.095 57.31125)scale(0.12 -0.12)">
       <use xlink:href="#BitstreamVeraSans-Roman-31"/>
       <use x="63.623046875" xlink:href="#BitstreamVeraSans-Roman-30"/>
       <use x="127.24609375" xlink:href="#BitstreamVeraSans-Roman-30"/>
      </g>
     </g>
    </g>
    <g id="text_19">
     <!-- alignment accuracy (%) -->
     <defs>
      <path d="M 18.3125 70.21875 
L 18.3125 54.6875 
L 36.8125 54.6875 
L 36.8125 47.703125 
L 18.3125 47.703125 
L 18.3125 18.015625 
Q 18.3125 11.328125 20.140625 9.421875 
Q 21.96875 7.515625 27.59375 7.515625 
L 36.8125 7.515625 
L 36.8125 0 
L 27.59375 0 
Q 17.1875 0 13.234375 3.875 
Q 9.28125 7.765625 9.28125 18.015625 
L 9.28125 47.703125 
L 2.6875 47.703125 
L 2.6875 54.6875 
L 9.28125 54.6875 
L 9.28125 70.21875 
z
" id="BitstreamVeraSans-Roman-74"/>
      <path d="M 34.28125 27.484375 
Q 23.390625 27.484375 19.1875 25 
Q 14.984375 22.515625 14.984375 16.5 
Q 14.984375 11.71875 18.140625 8.90625 
Q 21.296875 6.109375 26.703125 6.109375 
Q 34.1875 6.109375 38.703125 11.40625 
Q 43.21875 16.703125 43.21875 25.484375 
L 43.21875 27.484375 
z
M 52.203125 31.203125 
L 52.203125 0 
L 43.21875 0 
L 43.21875 8.296875 
Q 40.140625 3.328125 35.546875 0.953125 
Q 30.953125 -1.421875 24.3125 -1.421875 
Q 15.921875 -1.421875 10.953125 3.296875 
Q 6 8.015625 6 15.921875 
Q 6 25.140625 12.171875 29.828125 
Q 18.359375 34.515625 30.609375 34.515625 
L 43.21875 34.515625 
L 43.21875 35.40625 
Q 43.21875 41.609375 39.140625 45 
Q 35.0625 48.390625 27.6875 48.390625 
Q 23 48.390625 18.546875 47.265625 
Q 14.109375 46.140625 10.015625 43.890625 
L 10.015625 52.203125 
Q 14.9375 54.109375 19.578125 55.046875 
Q 24.21875 56 28.609375 56 
Q 40.484375 56 46.34375 49.84375 
Q 52.203125 43.703125 52.203125 31.203125 
" id="BitstreamVeraSans-Roman-61"/>
      <path d="M 9.421875 75.984375 
L 18.40625 75.984375 
L 18.40625 0 
L 9.421875 0 
z
" id="BitstreamVeraSans-Roman-6c"/>
      <path d="M 32.171875 -5.078125 
Q 28.375 -14.84375 24.75 -17.8125 
Q 21.140625 -20.796875 15.09375 -20.796875 
L 7.90625 -20.796875 
L 7.90625 -13.28125 
L 13.1875 -13.28125 
Q 16.890625 -13.28125 18.9375 -11.515625 
Q 21 -9.765625 23.484375 -3.21875 
L 25.09375 0.875 
L 2.984375 54.6875 
L 12.5 54.6875 
L 29.59375 11.921875 
L 46.6875 54.6875 
L 56.203125 54.6875 
z
" id="BitstreamVeraSans-Roman-79"/>
     </defs>
     <g transform="translate(142.271875 437.0221875)rotate(-90.0)scale(0.28 -0.28)">
      <use xlink:href="#BitstreamVeraSans-Roman-61"/>
      <use x="61.279296875" xlink:href="#BitstreamVeraSans-Roman-6c"/>
      <use x="89.0625" xlink:href="#BitstreamVeraSans-Roman-69"/>
      <use x="116.845703125" xlink:href="#BitstreamVeraSans-Roman-67"/>
      <use x="180.322265625" xlink:href="#BitstreamVeraSans-Roman-6e"/>
      <use x="243.701171875" xlink:href="#BitstreamVeraSans-Roman-6d"/>
      <use x="341.11328125" xlink:href="#BitstreamVeraSans-Roman-65"/>
      <use x="402.63671875" xlink:href="#BitstreamVeraSans-Roman-6e"/>
      <use x="466.015625" xlink:href="#BitstreamVeraSans-Roman-74"/>
      <use x="505.224609375" xlink:href="#BitstreamVeraSans-Roman-20"/>
      <use x="537.01171875" xlink:href="#BitstreamVeraSans-Roman-61"/>
      <use x="598.291015625" xlink:href="#BitstreamVeraSans-Roman-63"/>
      <use x="653.271484375" xlink:href="#BitstreamVeraSans-Roman-63"/>
      <use x="708.251953125" xlink:href="#BitstreamVeraSans-Roman-75"/>
      <use x="771.630859375" xlink:href="#BitstreamVeraSans-Roman-72"/>
      <use x="812.744140625" xlink:href="#BitstreamVeraSans-Roman-61"/>
      <use x="874.0234375" xlink:href="#BitstreamVeraSans-Roman-63"/>
      <use x="929.00390625" xlink:href="#BitstreamVeraSans-Roman-79"/>
      <use x="988.18359375" xlink:href="#BitstreamVeraSans-Roman-20"/>
      <use x="1019.97070312" xlink:href="#BitstreamVeraSans-Roman-28"/>
      <use x="1058.984375" xlink:href="#BitstreamVeraSans-Roman-25"/>
      <use x="1154.00390625" xlink:href="#BitstreamVeraSans-Roman-29"/>
     </g>
    </g>
   </g>
   <g id="legend_1">
    <g id="patch_7">
     <path d="M 192.5 473.5 
L 489.609375 473.5 
L 489.609375 392.609375 
L 192.5 392.609375 
z
" style="fill:#ffffff;stroke:#000000;stroke-linejoin:miter;"/>
    </g>
    <g id="PathCollection_27">
     <path d="M 210 422.114037 
L 217.071068 415.042969 
L 210 407.971901 
L 202.928932 415.042969 
L 210 422.114037 
z
" style="fill:none;stroke:#00ffff;"/>
     <path d="M 227.5 419.926537 
L 234.571068 412.855469 
L 227.5 405.784401 
L 220.428932 412.855469 
L 227.5 419.926537 
z
" style="fill:none;stroke:#00ffff;"/>
     <path d="M 245 423.207787 
L 252.071068 416.136719 
L 245 409.065651 
L 237.928932 416.136719 
L 245 423.207787 
z
" style="fill:none;stroke:#00ffff;"/>
    </g>
    <g id="text_20">
     <!-- HMM acapella -->
     <defs>
      <path d="M 9.8125 72.90625 
L 24.515625 72.90625 
L 43.109375 23.296875 
L 61.8125 72.90625 
L 76.515625 72.90625 
L 76.515625 0 
L 66.890625 0 
L 66.890625 64.015625 
L 48.09375 14.015625 
L 38.1875 14.015625 
L 19.390625 64.015625 
L 19.390625 0 
L 9.8125 0 
z
" id="BitstreamVeraSans-Roman-4d"/>
      <path d="M 18.109375 8.203125 
L 18.109375 -20.796875 
L 9.078125 -20.796875 
L 9.078125 54.6875 
L 18.109375 54.6875 
L 18.109375 46.390625 
Q 20.953125 51.265625 25.265625 53.625 
Q 29.59375 56 35.59375 56 
Q 45.5625 56 51.78125 48.09375 
Q 58.015625 40.1875 58.015625 27.296875 
Q 58.015625 14.40625 51.78125 6.484375 
Q 45.5625 -1.421875 35.59375 -1.421875 
Q 29.59375 -1.421875 25.265625 0.953125 
Q 20.953125 3.328125 18.109375 8.203125 
M 48.6875 27.296875 
Q 48.6875 37.203125 44.609375 42.84375 
Q 40.53125 48.484375 33.40625 48.484375 
Q 26.265625 48.484375 22.1875 42.84375 
Q 18.109375 37.203125 18.109375 27.296875 
Q 18.109375 17.390625 22.1875 11.75 
Q 26.265625 6.109375 33.40625 6.109375 
Q 40.53125 6.109375 44.609375 11.75 
Q 48.6875 17.390625 48.6875 27.296875 
" id="BitstreamVeraSans-Roman-70"/>
      <path d="M 9.8125 72.90625 
L 19.671875 72.90625 
L 19.671875 43.015625 
L 55.515625 43.015625 
L 55.515625 72.90625 
L 65.375 72.90625 
L 65.375 0 
L 55.515625 0 
L 55.515625 34.71875 
L 19.671875 34.71875 
L 19.671875 0 
L 9.8125 0 
z
" id="BitstreamVeraSans-Roman-48"/>
     </defs>
     <g transform="translate(272.5 421.60546875)scale(0.25 -0.25)">
      <use xlink:href="#BitstreamVeraSans-Roman-48"/>
      <use x="75.1953125" xlink:href="#BitstreamVeraSans-Roman-4d"/>
      <use x="161.474609375" xlink:href="#BitstreamVeraSans-Roman-4d"/>
      <use x="247.75390625" xlink:href="#BitstreamVeraSans-Roman-20"/>
      <use x="279.541015625" xlink:href="#BitstreamVeraSans-Roman-61"/>
      <use x="340.8203125" xlink:href="#BitstreamVeraSans-Roman-63"/>
      <use x="395.80078125" xlink:href="#BitstreamVeraSans-Roman-61"/>
      <use x="457.080078125" xlink:href="#BitstreamVeraSans-Roman-70"/>
      <use x="520.556640625" xlink:href="#BitstreamVeraSans-Roman-65"/>
      <use x="582.080078125" xlink:href="#BitstreamVeraSans-Roman-6c"/>
      <use x="609.86328125" xlink:href="#BitstreamVeraSans-Roman-6c"/>
      <use x="637.646484375" xlink:href="#BitstreamVeraSans-Roman-61"/>
     </g>
    </g>
    <g id="PathCollection_28">
     <path d="M 210 456.738281 
L 215 451.738281 
L 210 446.738281 
L 205 451.738281 
z
" style="fill:#ff0000;stroke:#ff0000;"/>
     <path d="M 227.5 454.550781 
L 232.5 449.550781 
L 227.5 444.550781 
L 222.5 449.550781 
z
" style="fill:#ff0000;stroke:#ff0000;"/>
     <path d="M 245 457.832031 
L 250 452.832031 
L 245 447.832031 
L 240 452.832031 
z
" style="fill:#ff0000;stroke:#ff0000;"/>
    </g>
    <g id="text_21">
     <!-- VTHMM acapella -->
     <defs>
      <path d="M -0.296875 72.90625 
L 61.375 72.90625 
L 61.375 64.59375 
L 35.5 64.59375 
L 35.5 0 
L 25.59375 0 
L 25.59375 64.59375 
L -0.296875 64.59375 
z
" id="BitstreamVeraSans-Roman-54"/>
      <path d="M 28.609375 0 
L 0.78125 72.90625 
L 11.078125 72.90625 
L 34.1875 11.53125 
L 57.328125 72.90625 
L 67.578125 72.90625 
L 39.796875 0 
z
" id="BitstreamVeraSans-Roman-56"/>
     </defs>
     <g transform="translate(272.5 458.30078125)scale(0.25 -0.25)">
      <use xlink:href="#BitstreamVeraSans-Roman-56"/>
      <use x="68.408203125" xlink:href="#BitstreamVeraSans-Roman-54"/>
      <use x="129.4921875" xlink:href="#BitstreamVeraSans-Roman-48"/>
      <use x="204.6875" xlink:href="#BitstreamVeraSans-Roman-4d"/>
      <use x="290.966796875" xlink:href="#BitstreamVeraSans-Roman-4d"/>
      <use x="377.24609375" xlink:href="#BitstreamVeraSans-Roman-20"/>
      <use x="409.033203125" xlink:href="#BitstreamVeraSans-Roman-61"/>
      <use x="470.3125" xlink:href="#BitstreamVeraSans-Roman-63"/>
      <use x="525.29296875" xlink:href="#BitstreamVeraSans-Roman-61"/>
      <use x="586.572265625" xlink:href="#BitstreamVeraSans-Roman-70"/>
      <use x="650.048828125" xlink:href="#BitstreamVeraSans-Roman-65"/>
      <use x="711.572265625" xlink:href="#BitstreamVeraSans-Roman-6c"/>
      <use x="739.35546875" xlink:href="#BitstreamVeraSans-Roman-6c"/>
      <use x="767.138671875" xlink:href="#BitstreamVeraSans-Roman-61"/>
     </g>
    </g>
   </g>
  </g>
 </g>
 <defs>
  <clipPath id="pbad360f766">
   <rect height="432.0" width="1116.0" x="180.0" y="54.0"/>
  </clipPath>
 </defs>
</svg>
